<svg width="89" height="31" viewBox="0 0 89 31" fill="none" xmlns="http://www.w3.org/2000/svg">
<path d="M64.912 4.62254C64.7897 4.80753 64.6879 4.97403 64.586 5.14052C64.0767 6.01 62.9153 6.37999 61.9985 5.9915C61.9781 5.9915 61.9577 5.9915 61.9577 5.973C61.265 5.56601 60.6945 5.8435 60.1241 6.23199C59.9203 6.37999 59.7166 6.52798 59.5128 6.67598C59.248 6.43549 59.3091 6.15799 59.3906 5.936C59.6351 5.14052 60.1241 4.53004 60.9594 4.16005C61.3261 3.99356 61.6929 3.97506 62.0189 4.19705C62.5486 4.54854 63.1394 4.47454 63.7099 4.40054C64.1174 4.34505 64.3415 4.06756 64.2396 3.69757C64.1378 3.27208 63.9952 2.84659 63.8322 2.4211C63.7507 2.19911 63.7507 2.03262 63.8525 1.82912C63.9952 1.57013 64.097 1.29264 64.3211 1.03364C64.586 1.21864 64.6675 1.45913 64.7694 1.68112C64.9527 2.05111 65.1157 2.4581 65.3602 2.79109C65.5232 3.03159 65.8085 3.21658 66.0529 3.40158C66.2567 3.56807 66.4808 3.49407 66.6642 3.32758C66.9494 3.05009 67.2143 2.77259 67.4995 2.5321C68.0496 2.06961 68.5997 1.60713 69.1906 1.20014C69.5369 0.941146 69.9648 0.774652 70.4538 0.811651C71.1057 0.867149 71.5743 1.27414 71.5947 1.86612C71.6151 2.4951 71.4113 3.06858 71.0039 3.56807C70.3926 4.28955 69.598 4.77054 68.5997 4.99253C67.9681 5.14052 67.3161 5.23302 66.6642 5.21452C66.3789 5.21452 66.1956 5.28852 66.0937 5.52901C66.0326 5.65851 65.9714 5.76951 65.89 5.8805C65.8492 5.936 65.727 5.973 65.6455 5.973C65.6047 5.973 65.564 5.862 65.5436 5.80651C65.5232 5.78801 65.5436 5.75101 65.5436 5.71401C65.8288 5.14052 65.401 4.90003 64.912 4.62254ZM67.2754 3.47557C67.2754 3.51257 67.2958 3.54957 67.2958 3.58657C67.418 3.60507 67.5403 3.66057 67.6625 3.64207C68.07 3.58657 68.4978 3.54957 68.885 3.42007C69.3739 3.27208 69.8425 3.06858 70.2908 2.84659C70.6168 2.6986 70.576 2.3841 70.2296 2.29161C69.9852 2.21761 69.7203 2.18061 69.4758 2.21761C68.5793 2.36561 67.9274 2.93909 67.2754 3.47557Z" fill="white"/>
<path d="M13.4265 7.10149C13.3654 6.80549 13.5284 6.676 13.671 6.528C14.1193 6.08401 14.5675 5.67703 14.9953 5.21454C15.3213 4.86305 15.5862 4.47456 15.8511 4.08607C16.0548 3.79008 16.1567 3.47559 15.9122 3.1796C15.7084 2.90211 15.1583 2.82811 14.7509 2.9761C14.6286 3.0131 14.5267 3.0871 14.3841 3.1241C14.1804 3.1796 14.0378 3.0871 14.0989 2.90211C14.2415 2.45812 14.3841 1.97713 14.7509 1.62564C15.1176 1.29265 15.9733 1.12616 16.4419 1.34815C16.6253 1.44065 16.8086 1.60714 16.9105 1.77364C17.1346 2.16213 17.155 2.58762 17.0124 3.0316C16.4827 4.58556 15.4028 5.76952 14.0174 6.75C13.8544 6.87949 13.6506 6.97199 13.4265 7.10149Z" fill="white"/>
<path d="M0 14.2053C0.183367 14.1498 0.305612 14.0388 0.325986 13.8723C0.427857 13.1878 0.93721 12.8733 1.62993 12.6883C2.52639 12.4293 3.40248 12.0963 4.27857 11.8003C4.91017 11.5968 5.52139 11.3749 6.15299 11.1714C7.04945 10.8754 7.94591 10.5609 8.84238 10.2649C9.16836 10.1539 9.47397 10.0429 9.79996 9.93189C10.0037 9.8579 10.0445 9.7469 10.0241 9.54341C9.94258 8.72943 9.88146 7.89695 9.77959 7.06448C9.63697 5.93601 9.3721 4.82604 9.00537 3.73457C8.94425 3.56808 8.88313 3.36459 8.94425 3.21659C9.10724 2.69861 9.31098 2.21762 9.49435 1.69963C9.51472 1.66263 9.57585 1.64413 9.63697 1.60714C9.69809 1.68113 9.77959 1.75513 9.84071 1.82913C10.2482 2.55061 10.4723 3.32759 10.6149 4.10456C10.7983 5.02954 10.9205 5.93601 11.0428 6.86098C11.1243 7.58246 11.165 8.30394 11.2058 9.02542C11.2058 9.11792 11.2465 9.22891 11.2669 9.35841C11.4299 9.32141 11.5725 9.32141 11.6948 9.28441C13.1006 8.80343 14.486 8.32244 15.8918 7.84146C17.0328 7.45297 18.1737 7.08298 19.3147 6.69449C20.4353 6.306 21.5558 5.89901 22.6764 5.51052C24.0619 5.02954 25.4473 4.58555 26.8327 4.10456C27.9533 3.71607 29.0739 3.30909 30.1945 2.9206C31.2947 2.53211 32.4153 2.16212 33.5155 1.79213C34.1267 1.58864 34.7175 1.36664 35.3288 1.14465C35.4103 1.12615 35.4918 1.07065 35.5529 1.07065C35.6751 1.07065 35.8177 1.08915 35.8992 1.14465C35.94 1.18165 35.8789 1.32964 35.8585 1.42214C35.8585 1.45914 35.7974 1.49614 35.7974 1.53314C35.6344 2.16212 35.1454 2.42111 34.5138 2.60611C33.6377 2.8651 32.782 3.19809 31.9059 3.49408C31.0502 3.79007 30.1741 4.08606 29.298 4.38206C28.4016 4.69655 27.5051 4.99254 26.6086 5.30703C26.0178 5.51052 25.4269 5.71402 24.8361 5.91751C24.1841 6.1395 23.5321 6.38 22.8802 6.60199C22.2893 6.80548 21.6985 7.00898 21.1076 7.21247C20.4964 7.41597 19.8852 7.61946 19.2943 7.84146C18.6423 8.06345 17.9904 8.30394 17.3384 8.52593C16.5031 8.82193 15.6677 9.11792 14.8527 9.41391C13.9767 9.7284 13.1006 10.0429 12.2245 10.3389C11.98 10.4314 11.7355 10.5239 11.5114 10.6164C11.2465 10.7089 11.2262 10.9309 11.2465 11.1344C11.3076 12.5033 11.3688 13.8723 11.4095 15.2412C11.4503 16.4807 11.4706 17.7202 11.5318 18.9596C11.5725 19.7366 11.654 20.5136 11.7559 21.2906C11.817 21.827 12.0615 22.308 12.4282 22.752C12.7135 23.1035 13.1209 23.2885 13.6099 23.2885C14.3638 23.2885 15.138 23.307 15.8715 23.0665C16.5846 22.8445 17.1958 22.53 17.7459 22.0675C18.3367 21.5681 18.8868 21.0686 19.4777 20.5691C19.6203 20.4396 19.7629 20.3286 19.9463 20.2361C20.15 20.1436 20.2926 20.2176 20.3334 20.4211C20.3538 20.5321 20.313 20.6616 20.313 20.7726C20.2723 21.3091 20.2723 21.8455 20.7001 22.2895C20.9446 22.53 21.2095 22.678 21.5558 22.7335C22.4319 22.9 23.2265 22.641 24.0211 22.3635C24.3878 22.234 24.7342 22.0675 25.0806 21.901C25.2436 21.827 25.3658 21.716 25.5288 21.6051C25.4677 21.5126 25.4473 21.4386 25.3862 21.4016C24.7953 20.9206 24.1434 20.4766 23.3895 20.2176C22.7172 19.9956 22.0244 19.9956 21.3521 20.2731C21.2502 20.3101 21.1076 20.3101 20.9854 20.3101C20.9854 20.1991 20.9446 20.0696 20.9854 19.9771C21.1687 19.5516 21.3725 19.1261 21.5558 18.7006C21.78 18.1642 22.2689 17.9607 22.819 17.8127C24.9379 17.2392 27.0976 17.0542 29.298 17.2762C30.5816 17.4057 31.804 17.7942 32.8431 18.5341C33.3117 18.8671 33.3525 18.9226 33.0469 19.4961C32.9246 19.6996 32.7412 19.9031 32.6801 20.1066C32.5579 20.4581 32.293 20.6246 31.9263 20.7541C31.1317 21.0316 30.3575 21.3276 29.5833 21.6236C29.5018 21.6421 29.4406 21.6975 29.3591 21.7345C29.5018 22.123 29.8685 22.234 30.1945 22.3635C30.7038 22.5855 31.2743 22.715 31.8448 22.715C32.1096 22.715 32.3541 22.752 32.5782 22.8815C32.8839 23.048 33.2302 22.863 33.3117 22.53C33.3728 22.234 33.3932 21.9195 33.4543 21.6051C33.597 20.7911 33.8414 20.0141 34.2489 19.2926C34.3101 19.2001 34.3915 19.1261 34.473 19.0151C34.7379 19.2186 34.5953 19.4036 34.5342 19.5701C34.1878 20.4211 34.0044 21.3091 33.9433 22.2155C33.9433 22.2525 33.9229 22.308 33.9433 22.345C33.9433 22.604 34.0859 22.715 34.3508 22.604C34.8602 22.382 35.3695 22.1415 35.8381 21.864C36.3271 21.5681 36.6735 21.1241 36.8772 20.6061C37.0606 20.1991 37.2439 19.7921 37.4477 19.3851C37.4884 19.3111 37.5088 19.2556 37.5495 19.1816C37.9978 18.6451 38.4256 18.0717 38.8942 17.5537C39.2813 17.1097 39.7907 16.7952 40.4223 16.6287C41.3391 16.3882 42.1337 16.7212 42.582 17.4982C43.2136 18.6266 43.3154 19.8291 43.1117 21.0501C43.0302 21.5126 42.7653 21.938 42.5412 22.3635C42.419 22.5855 42.1948 22.6965 41.9096 22.6965C41.115 22.715 40.3408 22.567 39.6277 22.271C38.9146 21.9565 38.2423 21.5866 37.4884 21.1981C37.4273 21.2906 37.2847 21.4016 37.2236 21.5311C36.6735 22.789 35.777 23.7695 34.5749 24.528C34.2693 24.713 34.2286 24.8795 34.3915 25.1754C34.799 25.9154 35.3288 26.5629 36.1845 26.9329C36.5308 27.0809 36.8976 27.2289 37.2847 27.2844C38.3034 27.4139 39.3221 27.4139 40.3408 27.1734C41.9504 26.7849 43.3969 26.0819 44.762 25.2494C45.8622 24.5835 46.9828 23.9175 48.0422 23.1775C48.6942 22.7335 49.2647 22.197 49.8148 21.6606C50.0389 21.4386 50.2223 21.1056 50.263 20.8096C50.3853 20.1251 50.4667 19.4221 50.4871 18.7376C50.5075 17.4242 50.4667 16.1107 50.4464 14.7788C50.4464 14.6493 50.426 14.4643 50.3445 14.4088C50.1 14.2238 50.1611 14.0388 50.2019 13.8168C50.263 13.4468 50.3445 13.0583 50.3241 12.6698C50.263 11.4673 50.1611 10.2834 50.0593 9.08092C49.9574 8.08195 49.8351 7.08298 49.7129 6.08401C49.5907 5.25153 49.448 4.41905 49.285 3.58658C49.1832 3.10559 49.1628 2.66161 49.3054 2.18062C49.3869 1.90313 49.4073 1.60714 49.4684 1.31114C49.5092 1.10765 49.5499 0.904157 49.8759 0.830159C49.937 0.922657 49.9981 1.03365 50.0389 1.12615C50.4056 2.38411 50.7112 3.66058 50.8946 4.95554C51.0372 5.91751 51.2206 6.86098 51.3225 7.80446C51.4447 9.00692 51.5058 10.2279 51.6077 11.4303C51.6281 11.6708 51.6688 11.9113 51.6892 12.2258C51.9948 12.1518 52.2189 12.0963 52.443 12.0223C53.3191 11.7263 54.1952 11.4118 55.0917 11.0974C55.9678 10.8014 56.8642 10.5054 57.7403 10.2094C58.6164 9.9134 59.4925 9.5989 60.389 9.30291C61.0205 9.09942 61.6318 8.87742 62.2634 8.67393C62.895 8.45194 63.5469 8.22994 64.1785 8.02645C64.8101 7.82296 65.4214 7.60096 66.053 7.39747C66.6846 7.17547 67.3365 6.97198 67.9681 6.74999C68.8646 6.4355 69.7611 6.1395 70.6575 5.82501C71.5336 5.52902 72.4097 5.21453 73.3062 4.90004C73.6729 4.77054 74.0396 4.64105 74.4064 4.53005C74.7935 4.40056 74.8953 4.32656 74.875 3.95657C74.8342 3.56808 74.7731 3.16109 74.6508 2.7911C74.5694 2.55061 74.5286 2.32862 74.6101 2.10662C74.7731 1.68113 74.9565 1.23715 75.1398 0.81166C75.1806 0.737662 75.3028 0.608166 75.3639 0.626665C75.4658 0.645165 75.5881 0.737662 75.6492 0.830159C75.8529 1.27415 76.0567 1.73663 76.24 2.18062C76.3827 2.53211 76.5253 2.9021 76.6883 3.25359C76.7494 3.38308 76.8513 3.51258 76.9328 3.64208C77.4829 3.45708 77.9922 3.29059 78.5016 3.10559C79.4184 2.7911 80.3149 2.47661 81.2317 2.16212C82.0874 1.86613 82.9635 1.55164 83.8192 1.25565C84.3693 1.07065 84.899 0.867158 85.4491 0.682163C85.5714 0.645164 85.7548 0.626664 85.8566 0.700662C86.0196 0.811659 85.8974 0.959655 85.8566 1.10765C85.6733 1.71813 85.1843 2.03262 84.5323 2.21762C83.6562 2.47661 82.8005 2.8096 81.9244 3.10559C81.028 3.42008 80.1315 3.71607 79.235 4.01207C78.6849 4.19706 78.1348 4.38206 77.5847 4.56705C77.3402 4.65955 77.3199 4.82604 77.3199 5.04804C77.3402 5.19603 77.4829 5.39953 77.2791 5.49202C77.055 5.60302 76.9531 5.36253 76.7901 5.27003C76.729 5.23303 76.7086 5.17753 76.6475 5.15903C76.5456 5.12203 76.4234 5.10353 76.3012 5.06654C76.2808 5.15903 76.2197 5.25153 76.24 5.34403C76.3419 6.73149 76.4438 8.11895 76.5456 9.48791C76.6679 10.9679 76.7901 12.4293 76.892 13.9093C76.9939 15.1857 77.0754 16.4807 77.1772 17.7572C77.218 18.2936 77.2384 18.8486 77.2791 19.3851C77.3402 20.3471 77.218 21.3091 77.0142 22.2525C76.8513 23.085 76.5456 23.8805 76.1585 24.639C76.1382 24.6575 76.0974 24.676 76.0159 24.7315C75.9752 24.6205 75.8937 24.528 75.8937 24.4355C75.914 24.047 75.9344 23.677 75.9955 23.2885C76.1178 22.3635 76.0974 21.4386 75.9955 20.4951C75.9548 20.0881 75.9344 19.6626 75.914 19.2556C75.8326 17.9977 75.7307 16.7582 75.6492 15.5002C75.5881 14.7233 75.5677 13.9278 75.5066 13.1508C75.4251 12.0778 75.3232 11.0049 75.2417 9.93189C75.1806 9.09942 75.1195 8.28544 75.0583 7.45297C75.0176 6.91648 74.9972 6.3985 74.9361 5.86201C74.8953 5.56602 74.7731 5.51052 74.4675 5.62152C73.1432 6.08401 71.8392 6.56499 70.5149 7.02748C69.4147 7.41597 68.3349 7.76746 67.2347 8.15595C66.3993 8.45194 65.5844 8.76643 64.749 9.04392C63.8933 9.35841 63.0172 9.6544 62.1615 9.95039C61.3465 10.2464 60.5316 10.5239 59.7166 10.8199C58.8405 11.1344 57.9644 11.4488 57.0883 11.7633C56.253 12.0593 55.438 12.3738 54.6027 12.6883C53.8081 12.9843 53.0135 13.2803 52.1985 13.5393C51.7096 13.7058 51.6484 13.7613 51.6688 14.2053C51.7096 15.3337 51.7707 16.4437 51.8318 17.5722C51.8726 18.3491 51.9337 19.1446 51.9948 19.9216C52.0356 20.5321 52.2189 21.1056 52.5042 21.6606C52.7487 22.123 53.1154 22.419 53.6655 22.5115C53.8489 22.5485 54.0322 22.493 54.236 22.4745C54.3378 22.456 54.4601 22.4005 54.5619 22.4005C55.7436 22.345 56.6605 21.8455 57.4958 21.1426C57.9848 20.7541 58.4127 20.3101 58.8813 19.9031C59.0443 19.7551 59.2276 19.5146 59.4925 19.5886C59.7574 19.6811 59.6351 19.9586 59.6351 20.1436C59.6351 20.6986 59.9 21.1611 60.3482 21.5126C60.7149 21.8085 61.1632 22.049 61.591 22.2895C61.754 22.382 61.8966 22.308 61.9985 22.16C62.2634 21.753 62.5486 21.3461 62.8338 20.9576C63.4654 20.0696 64.1174 19.1816 64.7694 18.2936C65.3806 17.4797 66.1548 16.7952 67.0309 16.2217C68.1311 15.5372 69.3332 15.3707 70.6168 15.6297C71.2484 15.7592 71.8392 16.0737 72.3282 16.4622C72.8783 16.9062 73.408 17.3687 73.7544 17.9607C74.1007 18.5526 74.2841 19.1261 73.9785 19.7736C73.7951 20.1436 73.6933 20.5321 73.5506 20.9021C73.2247 21.716 72.5931 22.308 71.8392 22.789C70.6168 23.566 69.2925 24.158 67.8866 24.5835C67.0717 24.824 66.216 24.9165 65.3602 25.0275C64.423 25.1384 63.5469 25.046 62.6505 24.8795C62.4467 24.8425 62.243 24.7685 62.0393 24.713C61.754 24.639 61.6725 24.676 61.5299 24.9165C61.3873 25.1754 61.2854 25.4344 61.1428 25.6749C61.102 25.7489 61.0206 25.7859 60.9391 25.8599C60.7557 25.6934 60.7964 25.5084 60.8372 25.3419C60.8983 25.1199 60.9594 24.9165 61.0409 24.713C61.1224 24.528 61.0817 24.417 60.8779 24.3245C60.6334 24.2135 60.4093 24.0655 60.1648 23.936C59.5536 23.566 59.1461 23.085 58.9016 22.456C58.8609 22.3635 58.7998 22.271 58.7386 22.16C58.6368 22.234 58.5553 22.271 58.5145 22.3265C57.8626 23.159 57.0068 23.8065 56.0289 24.269C55.7029 24.417 55.3158 24.491 54.9694 24.5835C54.7046 24.6575 54.4397 24.7315 54.1748 24.787C54.073 24.8055 53.9711 24.824 53.8896 24.8055C52.7486 24.6205 51.7911 24.121 51.404 22.9555C51.2817 22.5855 51.2002 22.1785 51.0983 21.79C51.0576 21.6791 51.0168 21.5496 50.9557 21.4201C50.6705 21.5126 50.6297 21.6976 50.6094 21.864C50.5075 22.6595 50.0796 23.27 49.448 23.8065C47.8996 25.1015 46.3104 26.3409 44.5175 27.3584C43.4377 27.9689 42.3375 28.5423 41.1558 28.9493C40.0963 29.3193 39.0165 29.5968 37.8755 29.4858C36.6735 29.3748 35.5732 29.0603 34.7787 28.1539C34.0859 27.3584 33.597 26.4519 33.4543 25.4344C33.3932 25.009 33.3932 25.009 32.945 24.9535C32.5986 24.9165 32.2319 24.898 31.8855 24.8795C30.6223 24.861 29.5221 24.417 28.5238 23.7325C28.1571 23.4735 27.8107 23.2145 27.4643 22.937C27.0976 22.6595 27.0161 22.641 26.6494 22.863C26.0178 23.2515 25.3658 23.6215 24.7342 24.01C24.0211 24.4355 23.2469 24.7315 22.3912 24.8425C21.7596 24.935 21.1484 24.8425 20.5983 24.565C19.9259 24.232 19.6407 23.6585 19.5388 23.011C19.5184 22.826 19.4777 22.641 19.4573 22.456C19.1313 22.419 19.0091 22.604 18.8461 22.752C18.4182 23.196 18.0107 23.677 17.5421 24.0655C16.5234 24.9165 15.3417 25.4714 13.8952 25.3974C12.5912 25.3234 11.6948 24.787 11.1854 23.677C10.8187 22.8815 10.676 22.0675 10.6149 21.2166C10.5334 20.1806 10.4519 19.1631 10.4112 18.1272C10.3704 17.1467 10.3704 16.1477 10.3297 15.1487C10.2889 14.2238 10.2278 13.2988 10.1667 12.3553C10.1463 12.0038 10.1667 11.6523 10.1463 11.2824C10.1259 10.9494 10.0445 10.9124 9.69809 11.0419C8.61826 11.4304 7.51806 11.8188 6.43823 12.2073C5.3584 12.5958 4.29894 13.0028 3.23949 13.3913C2.2819 13.7428 1.34469 14.0758 0.387109 14.4273C0.285238 14.4643 0.162993 14.4458 0.0407484 14.4643C1.54835e-07 14.5568 0 14.3903 0 14.2053ZM64.9731 23.27C65.7066 23.1775 66.4604 23.122 67.1939 22.9925C67.7236 22.9 68.2534 22.752 68.7831 22.5855C69.3332 22.419 69.8833 22.2155 70.413 22.012C71.2687 21.6975 72.0633 21.2536 72.8172 20.7541C73.3062 20.4211 73.3469 20.2176 72.919 19.7736C72.3486 19.1816 71.6966 18.6266 70.902 18.2567C69.5573 17.6277 68.233 17.5907 66.9087 18.3121C66.1141 18.7376 65.4417 19.2926 64.8509 19.9216C64.097 20.7171 63.4451 21.5681 62.8338 22.4745C62.6301 22.7705 62.732 22.9555 63.0987 23.011C63.6896 23.122 64.3212 23.196 64.9731 23.27ZM29.5425 19.8106C29.3795 19.5331 29.0943 19.4961 28.8294 19.4591C28.483 19.4036 28.1367 19.4221 27.8107 19.3481C27.3217 19.2371 26.8327 19.2926 26.3641 19.3851C26.2826 19.4036 26.2215 19.4591 26.1196 19.5146C26.6086 19.9031 27.0365 20.2546 27.5051 20.6061C27.5662 20.6616 27.7292 20.6616 27.8107 20.6246C28.3812 20.3656 28.9313 20.1066 29.5425 19.8106ZM39.9129 18.8671C39.6481 18.9226 39.3628 18.9596 39.1387 19.0706C38.7924 19.2371 38.772 19.4406 39.1183 19.6256C39.6888 19.9216 40.2797 20.1991 40.8705 20.4581C41.0131 20.5321 41.2169 20.5321 41.4003 20.5136C41.5836 20.4951 41.6855 20.3656 41.604 20.1991C41.5429 20.0511 41.4818 19.8846 41.3799 19.7551C41.0335 19.2926 40.6057 18.9041 39.9129 18.8671Z" fill="white"/>
<path d="M85.1636 9.45093C85.3062 9.54343 85.4285 9.59892 85.5507 9.67292C86.1823 10.1724 86.7935 10.6719 87.4048 11.1899C87.4455 11.2269 87.4863 11.2454 87.5066 11.2824C87.5474 11.3749 87.5881 11.4859 87.6289 11.5969C87.5066 11.6339 87.4048 11.6894 87.2825 11.6894C87.1195 11.7079 86.9362 11.6709 86.6713 11.6709C86.7528 11.8374 86.7935 11.9484 86.8343 12.0409C87.2214 12.7068 87.6289 13.3543 87.9956 14.0388C88.1382 14.3348 88.1994 14.6863 88.2197 15.0193C88.2605 15.4448 88.2401 15.8702 88.2197 16.3142C88.1382 17.6277 87.527 18.6452 86.2638 19.2926C86.0193 19.4221 85.9174 19.5886 85.836 19.8291C85.4285 21.4201 84.7561 22.9 83.2688 23.9545C82.5761 24.454 81.9037 24.972 81.1499 25.379C79.3773 26.3409 77.5844 27.2474 75.7711 28.1724C75.0784 28.5239 74.3042 28.6164 73.53 28.7644C72.878 28.8939 72.226 29.0419 71.574 29.1714C71.1054 29.2639 70.6572 29.3934 70.209 29.4858C68.8643 29.7633 67.4992 30.0223 66.1545 30.2813C65.9712 30.3183 65.8082 30.3368 65.6248 30.3368C65.5229 30.3368 65.421 30.2813 65.2581 30.2443C65.421 30.1333 65.5025 30.0593 65.584 30.0223C66.399 29.6893 67.214 29.3564 68.0289 29.0419C68.8235 28.7459 69.6385 28.4684 70.4127 28.1539C71.2073 27.8579 72.0019 27.5434 72.7761 27.2104C73.8763 26.7479 74.9562 26.3039 76.036 25.823C77.2584 25.268 78.4605 24.6945 79.6626 24.084C81.0277 23.3995 82.3723 22.678 83.5541 21.7346C83.9208 21.4386 84.2468 21.0686 84.5524 20.7171C84.6543 20.5876 84.7154 20.3841 84.7154 20.2176C84.7561 19.6626 84.6339 19.6071 84.0227 19.6441C83.2484 19.6811 82.4538 19.7181 81.6796 19.6811C81.2925 19.6626 80.885 19.5331 80.5183 19.3481C79.9478 19.0706 79.6626 18.5712 79.6626 17.9977C79.6422 16.7212 80.1516 15.6667 81.3129 14.9083C81.9852 14.4643 82.7595 14.4828 83.4522 14.9083C84.1245 15.3153 84.5524 15.9072 84.9802 16.4992C85.1025 16.6657 85.2044 16.8322 85.3062 16.9987C85.5507 17.3687 85.8767 17.4612 86.2842 17.2392C86.5898 17.0727 86.8954 16.9062 87.1806 16.7027C87.527 16.4437 87.5474 16.3512 87.364 15.9812C87.1603 15.5743 86.9158 15.1488 86.6509 14.7603C86.1008 13.9463 85.5711 13.1138 85.2451 12.1888C85.2044 12.0594 85.0617 11.9484 84.9395 11.8559C84.7969 11.7264 84.6746 11.5969 84.695 11.3934C84.7765 10.8384 84.858 10.2834 84.9599 9.72842C85.0006 9.63592 85.0821 9.56192 85.1636 9.45093ZM82.3112 17.6832C82.5557 17.6647 82.8206 17.6462 83.0854 17.6092C83.3503 17.5722 83.3911 17.4242 83.2281 17.2392C82.8613 16.8137 81.9649 16.5177 81.3944 16.6287C81.1703 16.6842 81.0073 16.7952 80.9462 16.9987C80.9054 17.2022 81.0073 17.3502 81.1703 17.4612C81.2925 17.5352 81.4555 17.6092 81.5981 17.6277C81.8426 17.6647 82.0871 17.6647 82.3112 17.6832Z" fill="white"/>
<path d="M31.7632 15.6113C32.0077 15.4263 32.2318 15.2228 32.517 15.0748C34.6563 13.8723 36.816 12.6884 38.9756 11.5229C40.1166 10.9124 41.0945 10.117 41.9502 9.19198C42.2559 8.85899 42.3374 8.526 42.2151 8.11902C41.8484 7.02755 41.4409 5.93608 40.85 4.90011C40.8093 4.82611 40.7482 4.75211 40.687 4.67811C40.4222 4.36362 40.3407 4.34512 39.974 4.56712C39.7498 4.69661 39.5461 4.69661 39.3424 4.58562C38.996 4.40062 38.67 4.17863 38.4459 3.86414C38.2829 3.64214 38.2218 3.42015 38.3237 3.19816C38.5274 2.82817 38.7515 2.47668 39.0164 2.12519C39.1997 1.88469 39.4646 1.86619 39.7498 1.95869C40.4833 2.14369 40.9927 2.56917 41.4001 3.12416C42.0114 3.97513 42.2966 4.91861 42.5207 5.89908C42.5615 6.04707 42.6022 6.19507 42.6633 6.41706C42.7652 6.30607 42.8263 6.26907 42.8263 6.21357C43.0301 5.34409 43.2542 4.49312 43.4376 3.62364C43.6005 2.95766 43.8654 2.32868 44.3136 1.7552C44.3748 1.6812 44.4359 1.6257 44.497 1.5517C45.2916 0.700729 46.0454 1.12622 46.4937 1.7367C46.7993 2.16219 46.9826 2.60617 46.6363 3.10566C46.5752 3.17966 46.5752 3.30915 46.5344 3.40165C46.4122 3.66064 46.1881 3.69764 45.9843 3.47565C45.8417 3.32765 45.7195 3.17966 45.5565 3.05016C45.1897 2.77267 44.823 2.80967 44.5785 3.17966C44.3748 3.51265 44.171 3.86414 44.0488 4.21563C43.8043 4.9741 43.6209 5.73258 43.4376 6.49106C43.2542 7.32354 43.0301 8.15601 42.643 8.95149C42.2762 9.67297 41.9502 10.3945 41.3186 10.9494C40.6463 11.5599 39.9332 12.1149 39.1794 12.6329C37.8143 13.5764 36.3066 14.2978 34.6971 14.8343C33.8413 15.1118 33.006 15.4263 32.1503 15.7223C32.0484 15.7593 31.9262 15.7593 31.8243 15.7778C31.8039 15.7223 31.7836 15.6668 31.7632 15.6113Z" fill="white"/>
<path d="M15.4233 13.4099C15.4641 13.1879 15.4845 13.0029 15.5252 12.8364C15.5863 12.6144 15.6678 12.3739 15.7901 12.1704C15.8919 12.0039 16.0549 11.8004 16.2383 11.7264C17.0533 11.4304 17.8886 11.1714 18.7036 10.894C19.5797 10.598 20.4761 10.302 21.3522 10.006C22.2894 9.69149 23.2063 9.377 24.1435 9.06251C25.0196 8.76651 25.8957 8.45202 26.7921 8.15603C27.4033 7.95254 28.0146 7.74904 28.6258 7.52705C29.5426 7.21256 30.4798 6.89807 31.3967 6.58357C32.2524 6.28758 33.1081 6.01009 33.9434 5.7141C34.8807 5.39961 35.7975 5.08512 36.7143 4.77063C36.9792 4.67813 37.2237 4.58563 37.5293 4.77063C37.2848 5.41811 36.9996 5.97309 36.205 6.23208C35.2678 6.50958 34.3509 6.87957 33.4341 7.19406C32.558 7.49005 31.6615 7.78604 30.7855 8.08203C29.9094 8.37802 29.0536 8.69252 28.1979 8.98851C27.3218 9.2845 26.4254 9.58049 25.5493 9.87648C24.6732 10.1725 23.8175 10.4685 22.9414 10.7645C22.0246 11.079 21.1077 11.3934 20.2113 11.7079C19.3963 12.0039 18.5813 12.2814 17.7664 12.5959C17.0533 12.8734 16.3402 13.1694 15.6271 13.4469C15.6067 13.4469 15.566 13.4284 15.4233 13.4099Z" fill="white"/>
<path d="M21.8205 15.3153C21.8001 15.2043 21.7593 15.0933 21.7797 15.0008C21.8816 14.7048 22.0038 14.4088 22.1057 14.1128C22.2483 13.7243 22.6354 13.6133 23.0022 13.4838C23.9801 13.1508 24.9377 12.8179 25.9157 12.5034C26.5473 12.2999 27.1789 12.0964 27.7901 11.8929C28.4013 11.6894 29.0125 11.4859 29.6238 11.2824C30.561 10.9679 31.4778 10.6534 32.415 10.3389C33.2911 10.0429 34.1672 9.72845 35.0433 9.43245C35.6138 9.22896 36.2046 9.04397 36.7751 8.84047C37.2437 8.67398 37.7123 8.50748 38.1809 8.35949C38.405 8.28549 38.6699 8.13749 38.8736 8.32249C39.057 8.48898 38.8329 8.71098 38.7718 8.89597C38.5884 9.46945 38.0383 9.63595 37.5086 9.82094C36.5306 10.1539 35.573 10.4869 34.5951 10.8199C33.4949 11.1899 32.3743 11.5599 31.2741 11.9484C30.4387 12.2444 29.6238 12.5404 28.7884 12.8364C27.9735 13.1323 27.1585 13.4098 26.3435 13.7058C25.5082 14.0203 24.6525 14.3163 23.8171 14.6308C23.267 14.8343 22.7169 15.0378 22.1465 15.2413C22.065 15.2968 21.9631 15.2968 21.8205 15.3153Z" fill="white"/>
<path d="M55.0917 16.4807C55.2139 16.2032 55.2954 15.8147 55.5399 15.5187C55.7029 15.2968 56.0493 15.1673 56.3549 15.0748C57.3125 14.7418 58.2701 14.4273 59.2277 14.1128C60.1241 13.8168 61.0206 13.5208 61.917 13.2248C62.7931 12.9288 63.6692 12.6143 64.5657 12.3183C65.4418 12.0223 66.3382 11.7264 67.2143 11.4304C68.1108 11.1159 69.0072 10.8199 69.9037 10.5054C70.4742 10.3019 71.065 10.1169 71.6355 9.91341C71.717 9.89491 71.7985 9.87641 71.88 9.85791C72.206 9.80241 72.3078 9.91341 72.2263 10.2094C72.043 10.8569 71.5744 11.2084 70.8817 11.4119C69.6388 11.8004 68.4164 12.2443 67.1939 12.6698C66.3178 12.9658 65.4621 13.2433 64.586 13.5578C63.7303 13.8538 62.895 14.1683 62.0597 14.4828C61.2854 14.7603 60.4908 15.0378 59.6963 15.3153C58.8609 15.6112 58.0052 15.9257 57.1699 16.2402C56.6198 16.4437 56.09 16.6472 55.5603 16.8507C55.1936 16.9247 55.0509 16.8507 55.0917 16.4807Z" fill="white"/>
<path d="M85.7752 7.91545C85.3066 7.61946 84.8991 7.36047 84.4713 7.11998C84.4101 7.08298 84.349 7.02748 84.2675 6.99048C83.9212 6.78699 83.8193 6.82399 83.6359 7.15698C83.534 7.36047 83.4322 7.56397 83.3099 7.74896C83.1266 8.02645 83.0043 8.04495 82.7395 7.87846C82.2912 7.60096 81.8226 7.30498 81.3744 7.00899C81.1095 6.84249 81.0892 6.74999 81.2114 6.491C81.3744 6.13951 81.5374 5.78803 81.7207 5.43654C81.9041 5.10355 82.0671 5.06655 82.4135 5.27004C82.8006 5.49204 83.1673 5.73253 83.534 5.97302C83.9212 6.21351 84.0026 6.19501 84.186 5.82502C84.2879 5.60303 84.4101 5.39954 84.5324 5.19605C84.675 4.97405 84.8176 4.93705 85.0417 5.06655C85.5307 5.36254 85.9993 5.65853 86.4679 5.97302C86.7735 6.17651 86.7735 6.32451 86.6105 6.6205C86.4475 6.89799 86.3049 7.17548 86.1419 7.43447C86.0604 7.60096 85.9178 7.73046 85.7752 7.91545Z" fill="white"/>
<path d="M56.0899 1.31116C56.151 1.42215 56.1714 1.45915 56.1714 1.47765C56.0695 1.81064 55.9473 2.14363 55.825 2.49512C55.4583 3.53109 55.0712 4.58556 55.0508 5.67703C55.0508 5.97302 55.0508 6.26901 55.0916 6.565C55.1119 6.7315 55.1934 6.91649 55.2953 7.04599C55.5805 7.45298 55.988 7.48998 56.3548 7.13849C56.6196 6.87949 56.8234 6.5835 57.0679 6.30601C57.1086 6.26901 57.1494 6.23201 57.2512 6.13952C57.292 6.26901 57.3735 6.36151 57.3531 6.43551C57.1086 7.13849 56.9864 7.87847 56.4974 8.48895C56.2325 8.82194 55.9269 9.09943 55.4176 9.06243C55.0508 9.04393 54.7452 8.87744 54.5822 8.59994C54.4192 8.32245 54.297 8.00796 54.2562 7.69347C54.1136 6.43551 54.2766 5.21454 54.7452 4.03058C55.0304 3.3091 55.3361 2.60612 55.662 1.88464C55.7435 1.69965 55.9269 1.53315 56.0899 1.31116Z" fill="white"/>
<path d="M47.4308 14.4642C47.4512 14.4827 47.492 14.5197 47.4716 14.5382C47.3697 15.3522 47.1049 16.1292 46.5751 16.7952C46.3103 17.1281 45.9435 17.2946 45.4749 17.2206C44.9656 17.1466 44.6803 16.8322 44.5581 16.4067C44.3747 15.8517 44.3543 15.2782 44.3951 14.6862C44.5173 12.9658 45.1082 11.3748 45.9639 9.83935C46.0046 9.78385 46.0658 9.72835 46.1269 9.67285C46.3306 9.83935 46.2491 10.0058 46.2084 10.1723C45.9639 10.8753 45.699 11.5783 45.4953 12.2813C45.3323 12.8548 45.2508 13.4467 45.21 14.0202C45.1897 14.3717 45.2915 14.7232 45.4138 15.0562C45.6175 15.5927 46.1473 15.7037 46.5751 15.2782C46.7789 15.0932 46.9215 14.8527 47.1049 14.6492C47.1864 14.5567 47.1863 14.5567 47.4308 14.4642Z" fill="white"/>
<path d="M18.0923 17.4981C18.0312 17.6831 17.9701 17.8126 17.9089 17.9421C17.746 18.2566 17.583 18.5526 17.42 18.8486C17.2366 19.1816 17.094 19.2001 16.7884 18.9966C16.3402 18.7006 15.9123 18.4046 15.4641 18.1086C15.1381 17.8866 15.1177 17.7941 15.3011 17.4426C15.4844 17.1096 15.6271 16.7766 15.8104 16.4436C16.0142 16.0552 16.0957 16.0367 16.4828 16.2772C16.9106 16.5546 17.3589 16.8321 17.7867 17.1281C17.9293 17.2206 18.0108 17.3686 18.0923 17.4981Z" fill="white"/>
<path d="M80.4167 13.2433C80.4167 13.0398 80.3964 12.8918 80.4167 12.7438C80.5186 11.7264 80.1519 10.8569 79.4592 10.0799C79.235 9.82093 78.9905 9.59894 78.7664 9.33994C78.5219 9.08095 78.5423 8.58147 78.8276 8.39647C78.8887 8.34097 79.0924 8.37797 79.1535 8.43347C79.6833 8.84046 80.1519 9.30295 80.4371 9.85793C80.9261 10.8014 81.0076 11.7819 80.7835 12.7993C80.7427 13.0398 80.7427 13.0398 80.4167 13.2433Z" fill="white"/>
<path d="M22.0248 1.57012C22.473 1.51462 22.962 1.86611 23.125 2.2916C23.288 2.69859 23.125 3.14258 22.6971 3.42007C22.2693 3.69756 21.821 3.69756 21.3932 3.43857C21.2302 3.34607 21.1487 3.21658 21.1487 3.03158C21.1487 2.79109 21.1283 2.55059 21.1487 2.3286C21.1487 1.82911 21.4543 1.57012 22.0248 1.57012Z" fill="white"/>
</svg>
