<svg width="71" height="38" viewBox="0 0 71 38" fill="none" xmlns="http://www.w3.org/2000/svg">
<path d="M7.21659 6.77194C7.57163 6.98834 7.88489 7.14573 8.17728 7.32278C8.40701 7.46049 8.63675 7.63754 8.86648 7.77525C9.20063 7.99165 9.30504 7.97198 9.47211 7.63754C9.57654 7.40147 9.70186 7.18507 9.82717 6.96867C9.97336 6.69325 10.1404 6.65391 10.391 6.81129C10.8505 7.08671 11.31 7.3818 11.7485 7.69656C12.1871 8.01132 12.1871 8.10969 11.9365 8.56216C11.7903 8.81791 11.665 9.09332 11.4979 9.34907C11.3935 9.50645 11.2682 9.64416 11.122 9.82121C10.6625 9.52612 10.2449 9.27038 9.82717 8.99496C9.20063 8.58183 9.20063 8.58183 8.86648 9.21136C8.78294 9.38841 8.67851 9.54579 8.57409 9.70318C8.4279 9.91958 8.2817 9.95892 8.07286 9.82121C7.55074 9.48678 7.02863 9.15234 6.50651 8.8179C6.33944 8.71954 6.27679 8.56216 6.36033 8.40478C6.59006 7.93263 6.84068 7.48016 7.09129 7.00802C7.09129 6.949 7.15394 6.87031 7.21659 6.77194Z" fill="#DDB96A"/>
<path d="M20.9585 6.00476C21.1882 6.6933 21.4806 7.36217 21.6059 8.07038C21.7104 8.60155 21.5015 9.1327 21.0629 9.52616C20.8332 9.74256 20.4573 9.72288 20.1858 9.52616C20.0187 9.38845 19.8725 9.15238 19.6846 9.11303C19.3922 9.07369 19.4548 9.44747 19.2669 9.5655C19.058 9.70321 18.8701 9.86059 18.6403 9.91961C18.2226 10.018 17.7841 9.76223 17.6588 9.30976C17.5752 8.95565 17.5752 8.5622 17.5335 8.18842C17.4917 7.93268 17.4708 7.65726 17.3873 7.42119C17.2828 7.04741 17.3664 6.65396 17.6379 6.4769C17.8258 6.33919 18.0138 6.39821 18.0347 6.61461C18.0556 6.92937 18.0347 7.24413 18.0138 7.5589C17.9929 7.913 17.9511 8.28678 18.2018 8.60154C18.4106 8.87696 18.6821 8.93598 18.9745 8.73925C19.3295 8.50318 19.5384 8.20809 19.4548 7.7753C19.3922 7.46053 19.3086 7.1261 19.246 6.81134C19.1833 6.51625 19.1833 6.22116 19.5593 6.02443C19.6219 6.1228 19.7055 6.22116 19.7263 6.31952C19.8308 6.81134 19.9352 7.30315 19.9978 7.79497C20.0605 8.22777 20.332 8.54253 20.7079 8.58187C21.1047 8.62122 21.2718 8.40482 21.1256 8.05071C21.0003 7.77529 20.8123 7.51955 20.7079 7.24413C20.6244 6.96872 20.5826 6.67363 20.5826 6.37854C20.5826 6.16214 20.6243 6.16214 20.9585 6.00476Z" fill="#DDB96A"/>
<path d="M48.3382 5.55225C48.9856 5.55225 49.5077 6.06374 49.5077 6.6736C49.5077 7.24411 48.9856 7.7556 48.3591 7.7556C47.6281 7.7556 47.2939 7.38182 47.2731 6.6736C47.2522 5.98505 47.6908 5.55225 48.3382 5.55225Z" fill="#DDB96A"/>
<path d="M41.3442 37.774C41.4904 37.4706 41.8246 37.3568 42.117 37.243C43.37 36.731 44.644 36.238 45.9179 35.7449C46.9413 35.3467 47.9855 34.9864 49.0089 34.5693C49.9904 34.19 50.9511 33.7728 51.9118 33.3556C52.7472 32.9953 53.6034 32.635 54.4179 32.2179C56.5481 31.1749 58.6157 30.0371 60.37 28.5011C60.558 28.3494 60.7042 28.1598 60.8712 27.9891C61.2889 27.6289 61.3516 27.1927 61.2889 26.6997C61.101 25.4671 60.6833 24.3104 60.0567 23.2105C59.8688 22.8881 59.8688 22.5658 59.9523 22.2434C60.0358 21.94 60.1403 21.6366 60.2447 21.3332C60.3073 21.1436 60.3491 20.916 60.6833 20.8212C60.7877 20.9919 60.913 21.1625 60.9757 21.3332C61.3307 22.4141 62.6255 22.5468 63.44 22.3382C63.9621 22.1865 64.4842 21.9779 64.8602 21.6176C64.9855 21.4849 65.1108 21.3332 65.1525 21.1625C65.3405 20.5368 65.3823 19.911 65.3405 19.2662C65.1734 16.9148 65.0272 14.5445 64.8393 12.1741C64.6931 10.1072 64.526 8.05921 64.3798 5.99226C64.3381 5.27167 64.3172 4.53212 64.2963 3.81153C64.2754 3.37539 64.2754 2.92028 64.0039 2.54102C63.7115 2.10488 63.8368 1.68769 64.0039 1.27051C64.1501 0.910216 64.3381 0.568885 64.5051 0.227554C64.5469 0.151703 64.5678 0.0948142 64.6304 0C64.9646 0.26548 65.0064 0.568885 65.1317 0.815402C65.4867 1.6308 65.8209 2.44621 66.1759 3.28057C66.3847 3.7736 66.5727 4.26664 66.7607 4.77864C66.8024 4.87345 66.7398 5.00619 66.7189 5.11997C66.5936 5.08204 66.4265 5.08204 66.3221 5.02515C66.155 4.91138 66.0297 4.75967 65.8209 4.53212C65.7791 4.75967 65.7373 4.85449 65.7373 4.96826C65.7373 5.23374 65.7582 5.51819 65.7791 5.78367C65.9253 7.7558 66.0715 9.70897 66.2177 11.6811C66.3638 13.7481 66.51 15.796 66.6353 17.863C66.7189 19.1714 66.4683 20.4609 66.0088 21.7125C65.6329 22.7364 65.0899 23.7035 64.0874 24.3672C63.6489 24.6517 63.1894 24.9172 62.5629 24.7086C62.2078 24.5758 62.0408 24.7086 62.0199 25.0689C61.999 25.524 62.0408 25.9791 62.0199 26.4342C61.9781 27.1358 61.9364 27.8564 61.7484 28.5391C61.4351 29.62 60.7877 30.4543 59.8688 31.1559C58.386 32.2747 56.757 33.185 55.0862 34.0383C54.2091 34.4934 53.3528 34.9295 52.4339 35.3278C51.7865 35.6122 51.1391 35.8587 50.429 35.9725C49.4265 36.1242 48.445 36.3897 47.4634 36.6172C46.3774 36.8448 45.2914 37.0723 44.2054 37.2999C43.6624 37.4137 43.1194 37.4895 42.5973 37.6033C42.4511 37.6412 42.3258 37.7171 42.2005 37.774C41.8872 37.774 41.6157 37.774 41.3442 37.774Z" fill="#DDB96A"/>
<path d="M19.1231 22.1865C19.4154 22.3572 19.4154 22.5848 19.4363 22.8123C19.4781 23.2105 19.5407 23.5898 19.7496 23.9501C20.0211 24.4242 20.4179 24.7465 20.8774 25.031C21.4412 25.3723 22.0051 25.6947 22.6108 25.9412C23.0911 26.1308 23.6132 26.2446 24.1353 26.3394C25.8479 26.6618 27.5186 26.5101 29.1685 25.9981C30.714 25.524 32.1341 24.8413 33.408 23.9122C33.5333 23.8173 33.6795 23.7036 33.8466 23.8173C34.0137 23.9122 33.9719 24.0828 33.9301 24.2345C33.8675 24.4621 33.8049 24.6707 33.784 24.8982C33.7004 25.5809 33.9302 25.9791 34.5985 26.1877C35.225 26.3773 35.8724 26.4342 36.5198 26.3015C37.4805 26.1119 38.3368 25.7326 39.026 25.0689C39.5272 24.5759 40.0284 24.1018 40.5505 23.6277C40.655 23.5329 40.8011 23.476 40.9264 23.4002C40.9682 23.4191 40.9891 23.4381 41.0309 23.4571C41.01 23.5898 41.01 23.7036 40.9682 23.8173C40.6967 24.6138 40.8638 25.0879 41.6783 25.7326C41.908 25.9222 42.2213 25.9602 42.5346 25.9412C43.3073 25.9033 43.9756 25.6378 44.5603 25.1447C45.1242 24.6707 45.521 24.1018 45.8761 23.495C46.0014 23.2864 46.0849 23.0968 46.3564 22.983C46.607 23.1347 46.5653 23.3433 46.5235 23.5708C46.4191 24.1776 46.607 24.7276 47.0874 25.1447C47.2962 25.3344 47.6095 25.4671 47.9019 25.5619C48.1525 25.6378 48.2569 25.7516 48.2569 25.9791C48.2569 26.4911 48.2778 27.0031 48.2569 27.5341C48.236 27.9133 48.1107 27.9892 47.7139 27.8754C47.0456 27.6858 46.5444 27.3065 46.1894 26.7756C46.064 26.5859 45.9805 26.3584 45.8552 26.1687C45.7716 26.036 45.6672 25.9033 45.521 25.6757C45.4166 25.8464 45.354 25.9412 45.3122 26.036C44.9363 26.8893 44.3724 27.6099 43.4535 28.0461C42.3884 28.5581 40.9682 28.3115 40.3417 27.1548C40.1537 26.7945 40.0493 26.3963 39.8822 25.9412C39.736 26.0739 39.6107 26.1687 39.5063 26.2825C38.8589 27.041 38.107 27.7047 37.1881 28.1978C36.1857 28.7287 35.1414 28.8046 34.0555 28.4632C33.6378 28.3305 33.3036 28.0461 33.1157 27.6858C32.9277 27.3634 32.7397 27.041 32.7397 26.6618C32.7397 26.529 32.6771 26.4153 32.6144 26.2256C32.4056 26.3204 32.2176 26.3773 32.0923 26.4721C31.3614 26.9841 30.6095 27.4393 29.7741 27.8185C28.2496 28.5201 26.6206 28.9184 24.8872 28.7477C24.1353 28.6718 23.4044 28.5012 22.757 28.1598C22.6943 28.1219 22.6317 28.1029 22.5899 28.084C20.9191 27.7237 19.6869 26.8514 18.9142 25.4671C18.8307 25.3154 18.768 25.1258 18.6845 24.9551C18.5592 24.6896 18.3921 24.6707 18.2042 24.8982C17.9953 25.1827 17.7865 25.4861 17.5985 25.7895C17.3479 26.1498 17.1599 26.548 16.8884 26.8893C16.3037 27.6478 15.5936 28.2167 14.5494 28.4822C13.2754 28.8046 12.3774 28.3305 11.5629 27.572C10.9364 26.9841 10.4978 26.3015 10.2263 25.524C9.95478 24.7845 9.72505 24.0259 9.47444 23.2674C9.43267 23.1157 9.37001 22.964 9.20293 22.8313C9.18205 22.8882 9.11941 22.964 9.11941 23.0209C8.95234 23.9501 8.38845 24.5948 7.49041 25.012C6.843 25.3154 6.19558 25.5999 5.50639 25.7326C5.10958 25.8084 4.71279 25.8274 4.31598 25.8084C3.79387 25.7705 3.35528 25.3344 3.3344 24.7655C3.31352 24.3673 3.35529 23.9501 3.41794 23.5519C3.62679 22.1486 4.46216 21.0488 5.54815 20.0817C6.19557 19.5128 6.86387 18.9629 7.53217 18.394C8.01252 17.9958 8.01252 17.882 7.51129 17.351C5.50638 18.887 3.25088 20.0437 0.765625 21.0488C0.870047 20.7264 1.03711 20.5937 1.24595 20.4609C2.20664 19.8731 3.18822 19.3042 4.12802 18.6784C5.06782 18.0526 5.96585 17.37 6.86388 16.7063C7.07272 16.5546 7.17715 16.3839 7.07272 16.1184C7.01007 15.9478 7.01008 15.7202 7.03097 15.5496C7.1145 15.0944 7.23981 14.6583 7.36511 14.2222C7.386 14.1463 7.40689 14.0705 7.44866 14.0136C7.59485 13.786 7.78279 13.786 7.92898 14.0136C8.03341 14.2222 8.13783 14.4307 8.24225 14.6393C8.34667 14.8479 8.47199 15.0565 8.61818 15.303C8.74349 15.2461 8.80613 15.2082 8.86878 15.1703C9.66239 14.4876 10.4769 13.786 11.2496 13.0844C11.7926 12.5914 12.3983 12.2121 13.0666 11.9087C13.4425 11.738 13.9228 11.6053 14.257 11.8897C14.5703 12.1552 14.4032 12.5913 14.2361 12.9137C13.6931 13.9567 13.0248 14.9427 12.1477 15.7961C11.4167 16.5167 10.6857 17.1993 9.93389 17.9009C9.68327 18.1285 9.55798 18.3371 9.6624 18.6595C9.85036 19.3611 9.99656 20.0817 10.1845 20.7833C10.3098 21.3522 10.456 21.9021 10.5813 22.471C10.8111 23.3622 11.1243 24.2156 11.7509 24.9551C12.2521 25.543 12.816 26.055 13.6305 26.2446C13.714 26.2636 13.7975 26.3204 13.8602 26.3015C14.4658 26.1119 15.155 26.2256 15.7398 25.8843C16.2828 25.5619 16.7422 25.2016 17.1182 24.7086C17.6403 24.007 18.1833 23.3243 18.7263 22.6227C18.8098 22.452 18.9769 22.3382 19.1231 22.1865ZM5.15136 23.4571C5.86144 23.495 6.4462 23.2674 7.03097 23.0968C7.55308 22.9451 8.03341 22.6985 8.43022 22.3383C8.7226 22.0728 8.8688 21.7694 8.80615 21.4091C8.68084 20.8591 8.57641 20.3092 8.40934 19.7783C8.30491 19.4369 8.11695 19.399 7.80368 19.6645C7.19803 20.1575 6.57151 20.6316 5.98674 21.1626C5.44375 21.6556 4.96339 22.1865 4.48305 22.7175C4.19066 23.0588 4.37864 23.4191 4.8381 23.476C4.9634 23.476 5.10959 23.4571 5.15136 23.4571ZM13.2128 13.0275C13.171 12.9896 13.1292 12.9516 13.0666 12.9327C12.9204 13.0085 12.7533 13.0844 12.628 13.1792C11.5002 14.0894 10.3934 14.9996 9.26559 15.9098C9.05675 16.0805 8.9941 16.2701 9.03587 16.5167C9.11941 16.839 9.2656 16.8959 9.55798 16.6873C9.64152 16.6304 9.74593 16.5546 9.80859 16.4787C10.5395 15.7961 11.2914 15.1324 12.0223 14.4497C12.3565 14.1463 12.6489 13.8239 12.9413 13.5016C13.0874 13.3499 13.1292 13.1792 13.2128 13.0275Z" fill="#DDB96A"/>
<path d="M25.8062 21.1435C25.7645 21.0108 25.7227 20.9539 25.7436 20.9159C25.9107 20.4798 26.0569 20.0247 26.2657 19.6075C26.3284 19.4748 26.5163 19.361 26.6834 19.3041C27.5605 19.0007 28.4586 18.7163 29.3566 18.4129C30.2755 18.1094 31.1944 17.7681 32.1133 17.4647C33.0114 17.1613 33.9303 16.8579 34.8283 16.5545C35.7055 16.2701 36.5826 15.9666 37.4389 15.6632C38.3996 15.3409 39.3394 15.0185 40.3 14.6961C41.1981 14.3927 42.0752 14.0893 42.9524 13.7859C43.8713 13.4636 44.7902 13.1601 45.7091 12.8567C46.3148 12.6481 46.9204 12.4396 47.5261 12.231C48.4241 11.9276 49.3221 11.6052 50.241 11.2828C51.2017 10.9415 52.1624 10.6191 53.1231 10.2778C54.0002 9.97439 54.8774 9.68995 55.7337 9.38654C56.6108 9.08314 57.5088 8.76077 58.386 8.45736C58.9707 8.24877 59.5764 8.04018 60.1611 7.83159C60.6206 7.66092 61.0801 7.49026 61.5604 7.35752C61.811 7.28167 62.0825 7.09204 62.3123 7.28167C62.542 7.47129 62.2914 7.71781 62.2078 7.90744C62.0616 8.24877 61.8319 8.51425 61.4142 8.64699C59.827 9.15899 58.2607 9.70891 56.6943 10.2399C55.1489 10.7708 53.6034 11.2828 52.0789 11.8327C50.6796 12.3258 49.3012 12.8378 47.902 13.3118C46.5027 13.8049 45.1035 14.26 43.7042 14.753C42.3467 15.2271 40.9892 15.7391 39.6109 16.2321C38.2325 16.7252 36.8332 17.1803 35.4549 17.6733C34.1183 18.1474 32.8025 18.6594 31.4659 19.1334C30.3591 19.5317 29.2731 19.9109 28.1662 20.3091C27.5397 20.5367 26.934 20.7832 26.3283 20.9918C26.1613 21.0676 25.9942 21.1056 25.8062 21.1435Z" fill="#DDB96A"/>
<path d="M69.7053 32.2368C69.4547 32.142 69.5173 31.9713 69.5173 31.8386C69.5382 31.4972 69.5591 31.1749 69.6009 30.8525C69.7262 29.8664 69.7262 28.8993 69.6009 27.9132C69.5382 27.4961 69.5591 27.0599 69.5173 26.6427C69.4547 25.6567 69.3711 24.6896 69.3085 23.7035C69.2667 23.0398 69.225 22.3761 69.1832 21.7124C69.1205 20.8591 69.037 20.0247 68.9744 19.1714C68.9117 18.3181 68.8699 17.4837 68.8073 16.6304C68.7446 15.796 68.682 14.9616 68.6193 14.1462C68.5775 13.6342 68.5567 13.1222 68.5149 12.6102C68.4731 11.9465 68.4522 11.2828 68.3896 10.6191C68.3687 10.3157 68.2643 10.0313 68.1599 9.74685C68.0554 9.48137 68.0554 9.23485 68.1599 8.98834C68.3269 8.59012 68.4731 8.1919 68.6611 7.79368C68.7029 7.69886 68.8282 7.62301 68.8908 7.5282C68.9952 7.60405 69.1414 7.6799 69.1832 7.79368C69.4965 8.45738 69.7888 9.14004 70.0603 9.8227C70.3318 10.4674 70.6033 11.1311 70.8539 11.7759C70.9166 11.9655 70.9584 12.1551 71.0001 12.3448C71.0001 12.4016 70.9792 12.5154 70.9166 12.5344C70.833 12.5534 70.7078 12.5534 70.6451 12.5154C70.478 12.3827 70.3109 12.231 70.1647 12.0603C70.1021 12.0034 70.0812 11.9086 70.0186 11.8328C69.9768 11.8517 69.935 11.8707 69.8933 11.8897C69.8724 11.9845 69.8097 12.0793 69.8097 12.1551C69.8724 12.8568 69.9559 13.5773 70.0186 14.279C70.0812 14.9806 70.1021 15.6633 70.1647 16.3649C70.2274 17.1234 70.2901 17.8819 70.3527 18.6215C70.4154 19.3989 70.478 20.1574 70.5198 20.9349C70.5825 21.7883 70.6451 22.6226 70.7077 23.4759C70.8122 24.993 71.0001 26.491 70.8957 28.0081C70.8122 29.07 70.6451 30.1509 70.2065 31.1559C70.0812 31.4593 69.9768 31.7437 69.8306 32.0471C69.8306 32.104 69.768 32.1609 69.7053 32.2368Z" fill="#DDB96A"/>
<path d="M49.8859 16.839C49.9903 17.0286 50.1156 17.1993 50.1992 17.4079C50.6169 18.4129 50.951 19.4369 51.1807 20.4988C51.3687 21.3901 51.5358 22.2813 51.7864 23.1726C51.9117 23.6466 52.1414 24.1207 52.3712 24.5758C52.6009 25.012 52.956 25.3533 53.499 25.486C54.2299 25.6567 54.9609 25.8084 55.6709 25.3912C56.2766 25.0499 56.3601 24.6896 56.026 24.1207C55.7962 23.7225 55.5039 23.3432 55.3159 22.9261C55.1906 22.6795 55.107 22.3951 55.1488 22.1486C55.2323 21.7124 55.4203 21.2763 55.5456 20.8401C55.5665 20.7833 55.6083 20.7264 55.6292 20.6695C56.0677 20.897 56.193 21.2384 56.381 21.5418C56.8405 22.2813 57.0493 23.0778 57.0284 23.9311C57.0075 24.6706 57.0284 25.4102 56.7361 26.1308C56.4228 26.8893 55.9633 27.4961 55.1279 27.8564C54.8355 27.9891 54.5223 28.0081 54.209 27.9322C53.5825 27.7995 52.9559 27.6857 52.4338 27.2685C51.8699 26.8324 51.4731 26.3204 51.2225 25.6757C51.1808 25.5619 51.139 25.4481 51.0554 25.2585C50.9719 25.4102 50.8884 25.486 50.8675 25.5619C50.7004 26.1497 50.4498 26.6997 50.0321 27.1927C49.7606 27.4961 49.4264 27.7237 49.0505 27.8943C48.7581 28.0271 48.4658 27.9891 48.4867 27.553C48.5284 27.06 48.4866 26.548 48.5075 26.0549C48.5075 25.7136 48.5702 25.6567 48.9461 25.6377C50.0948 25.6188 50.6169 24.6137 50.408 23.7794C50.1574 22.7364 49.9277 21.7124 49.6771 20.6695C49.5935 20.3281 49.4891 19.9868 49.3429 19.6644C49.1132 19.1335 49.1341 18.6025 49.2594 18.0526C49.322 17.8061 49.3638 17.5406 49.4473 17.2941C49.4891 17.1234 49.5518 16.8959 49.8859 16.839Z" fill="#DDB96A"/>
<path d="M30.8183 12.9516C30.9019 12.8189 30.9436 12.743 30.9645 12.6672C31.1525 11.8897 31.3404 11.0933 31.5493 10.3158C31.7372 9.61418 31.9461 8.89359 32.4473 8.30574C32.6353 8.09715 32.8441 7.88856 33.0738 7.73686C33.5333 7.45241 33.8466 7.45242 34.2434 7.79375C35.0787 8.49537 35.2041 9.08322 34.7655 9.84173C34.5566 10.202 34.3896 10.221 34.0972 9.91758C33.9928 9.80381 33.8883 9.69003 33.763 9.57625C33.408 9.25389 33.053 9.29181 32.7397 9.63314C32.4264 9.99344 32.2385 10.4296 32.134 10.8657C31.9043 11.7949 31.7372 12.743 31.5075 13.6722C31.3822 14.1653 31.2569 14.6773 30.9227 15.1134C30.8601 15.2082 30.7974 15.303 30.7139 15.3599C30.6512 15.4168 30.5468 15.4547 30.4633 15.4358C30.4215 15.4358 30.3589 15.322 30.338 15.2651C30.2962 15.0944 30.2962 14.9048 30.2544 14.7341C29.9203 13.5964 29.4817 12.5155 28.9178 11.4725C28.8761 11.3777 28.8134 11.2829 28.7299 11.2071C28.4584 10.8657 28.3957 10.8468 27.9572 11.0364C27.8319 11.0933 27.623 11.1122 27.4977 11.0554C27.2053 10.9226 26.9547 10.714 26.6832 10.5434C26.6206 10.5054 26.5579 10.4485 26.4326 10.3727C26.3073 10.5054 26.1611 10.6192 26.0984 10.7519C25.2839 12.1362 24.1144 13.1982 22.7152 14.1084C21.6501 14.791 20.5432 15.4168 19.3737 15.9098C18.5801 16.2512 17.7238 16.4977 16.9093 16.7821C16.4916 16.9338 16.0739 17.0666 15.6562 17.2183C15.4474 17.2941 15.4683 17.2941 15.1968 17.1993C15.3221 16.8959 15.6145 16.7442 15.9069 16.5925C18.4548 15.341 20.8564 13.9187 23.279 12.4965C24.553 11.738 25.7016 10.8278 26.3699 9.51936C26.5161 9.21596 26.7459 8.95048 26.9547 8.66604C27.268 8.24885 27.5604 8.19197 28.0616 8.40056C28.5419 8.59019 28.9387 8.89359 29.252 9.27285C29.795 9.93655 30.1291 10.6951 30.4006 11.4725C30.5259 11.8708 30.6095 12.269 30.7139 12.6672C30.693 12.781 30.7557 12.8379 30.8183 12.9516Z" fill="#DDB96A"/>
<path d="M20.6059 32.635C20.0837 32.3127 19.6243 32.0282 19.1857 31.7438C18.7262 31.4404 18.6427 31.4593 18.413 31.9144C18.3086 32.1041 18.2041 32.2937 18.0997 32.4833C17.9326 32.7298 17.8073 32.7678 17.5358 32.5971C17.0346 32.2937 16.5542 31.9903 16.053 31.6679C15.8233 31.5162 15.7815 31.4024 15.9068 31.1749C16.0948 30.8146 16.2827 30.4543 16.4707 30.113C16.6795 29.7337 16.8257 29.6958 17.2017 29.9233C17.5985 30.1699 17.9953 30.4164 18.3921 30.6629C18.7262 30.8715 18.8098 30.8336 18.9977 30.5112C19.1022 30.2836 19.2275 30.075 19.3528 29.8665C19.499 29.6199 19.666 29.5631 19.9167 29.7337C20.397 30.0371 20.8774 30.3216 21.3368 30.6439C21.671 30.8715 21.6918 31.0232 21.5039 31.3456C21.3577 31.611 21.2115 31.8955 21.0444 32.142C20.9191 32.2937 20.7729 32.4454 20.6059 32.635Z" fill="#DDB96A"/>
<path d="M51.0135 32.6351C50.8464 32.5403 50.7003 32.4644 50.575 32.3696C50.199 32.1231 49.8231 31.8766 49.4263 31.649C49.1548 31.4783 49.0504 31.5163 48.8833 31.7817C48.758 31.9903 48.6536 32.2179 48.5283 32.4265C48.3403 32.7489 48.215 32.7678 47.9017 32.5592C47.4214 32.2558 46.9411 31.9714 46.4607 31.668C46.231 31.5163 46.1892 31.4025 46.3145 31.1749C46.5025 30.8146 46.6696 30.4543 46.8784 30.113C47.0873 29.7148 47.2335 29.6769 47.6511 29.9423C48.0479 30.1699 48.4239 30.4164 48.7998 30.6629C49.1339 30.8715 49.2383 30.8526 49.4054 30.5112C49.5098 30.3026 49.6352 30.0751 49.7605 29.8665C49.9066 29.62 50.0737 29.5631 50.3243 29.7148C50.8047 29.9992 51.285 30.3026 51.7445 30.625C52.0786 30.8526 52.0995 31.0043 51.9115 31.3266C51.7653 31.5921 51.6192 31.8766 51.4521 32.1231C51.3059 32.2937 51.1597 32.4454 51.0135 32.6351Z" fill="#DDB96A"/>
<path d="M38.0237 13.6722C38.0863 13.5395 38.1281 13.4257 38.1908 13.3498C38.4414 13.0844 38.7129 12.8378 38.9635 12.5724C39.4438 12.0414 39.9451 11.4915 40.4045 10.9415C40.5507 10.7709 40.6343 10.5433 40.7178 10.3347C40.864 9.91756 40.6343 9.57623 40.1539 9.48141C39.8407 9.42452 39.5691 9.46245 39.2768 9.59519C39.1514 9.65208 38.9844 9.65208 38.88 9.61415C38.8173 9.59519 38.7964 9.3866 38.8382 9.29178C38.9635 8.96941 39.0888 8.62808 39.2977 8.34364C39.7362 7.73683 40.3419 7.67994 41.1355 7.85061C41.5114 7.92646 41.7202 8.22986 41.7829 8.59016C41.9082 9.29178 41.7411 9.95548 41.3652 10.5623C40.6551 11.719 39.7571 12.7241 38.5667 13.4826C38.4414 13.5774 38.3161 13.7101 38.0237 13.6722Z" fill="#DDB96A"/>
<path d="M60.6831 13.5394C60.8919 14.0135 61.0172 14.4686 61.0799 14.9237C61.1008 15.0944 61.0799 15.265 61.1217 15.4167C61.1843 15.7581 61.4767 16.0046 61.8108 16.0425C62.2077 16.0615 62.3747 15.8719 62.2077 15.5305C62.0824 15.265 61.8944 15.0185 61.79 14.753C61.7064 14.5065 61.6647 14.2221 61.6438 13.9566C61.6229 13.7859 61.7064 13.6153 61.9361 13.5963C61.9779 13.6153 62.0197 13.6342 62.0406 13.6722C62.2494 14.2221 62.4583 14.753 62.6462 15.303C62.876 15.9477 62.6045 16.4976 62.1241 16.9527C61.8944 17.1803 61.4976 17.1424 61.2261 16.9338C61.059 16.801 60.8919 16.6683 60.704 16.5356C60.5787 16.6873 60.4742 16.8579 60.3281 16.9907C60.1401 17.1424 59.9312 17.2941 59.7015 17.351C59.2629 17.4647 58.7826 17.1424 58.699 16.6873C58.6364 16.3649 58.6573 16.0236 58.6364 15.7012C58.6155 15.4357 58.5738 15.1702 58.5111 14.9048C58.4485 14.6203 58.4484 14.3548 58.6364 14.1273C58.6991 14.0514 58.8452 13.9756 58.9079 13.9945C58.9914 14.0135 59.075 14.1462 59.075 14.2221C59.075 14.5255 59.0541 14.8289 59.0332 15.1323C59.0123 15.4736 58.9915 15.796 59.2421 16.0804C59.4509 16.327 59.7015 16.3839 59.973 16.2321C60.3281 16.0236 60.5578 15.7391 60.4951 15.3219C60.4325 15.0185 60.3489 14.7341 60.3281 14.4307C60.3072 14.2221 60.328 13.9945 60.3698 13.767C60.4116 13.6911 60.5369 13.6342 60.6831 13.5394Z" fill="#DDB96A"/>
<path d="M53.7704 17.2182C53.7077 17.1613 53.7077 17.1234 53.6659 17.1234C52.9976 16.7062 52.8932 16.1563 53.3945 15.5495C53.7077 15.1513 54.0836 14.8289 54.564 14.5634C54.919 14.3738 55.2949 14.4117 55.462 14.6393C55.6291 14.8479 55.5873 15.4357 55.3785 15.5685C55.295 15.6253 55.107 15.6443 55.0234 15.5874C54.6684 15.3978 54.3969 15.5116 54.1254 15.7202C53.8957 15.8908 53.8748 16.0805 54.1254 16.2322C54.4596 16.4218 54.8146 16.5545 55.2114 16.3459C55.5038 16.1942 55.7753 16.0425 56.0677 15.8908C56.2139 15.815 56.381 15.7391 56.5271 15.6633C56.7569 15.7771 56.7151 15.9288 56.6525 16.0805C56.5271 16.3649 56.2765 16.5735 55.9841 16.7252C55.2114 17.1803 54.4596 17.6354 53.6868 18.0716C53.5824 18.1284 53.4571 18.1664 53.3109 18.2233C52.935 17.6733 53.5824 17.5596 53.7704 17.2182Z" fill="#DDB96A"/>
<path d="M15.4264 18.849C15.4264 18.9249 15.4473 19.0197 15.4264 19.0956C15.322 19.4369 15.1549 19.7782 15.0923 20.1385C14.9878 20.6505 14.9252 21.1435 14.8834 21.6555C14.8625 21.8072 14.9252 21.9969 15.0087 22.1296C15.1758 22.433 15.4682 22.452 15.7188 22.2244C15.8232 22.1296 15.9485 22.0348 16.1365 21.8831C16.1365 22.4899 15.9276 22.926 15.5517 23.2674C15.2384 23.5708 14.8208 23.5139 14.591 23.1536C14.4657 22.945 14.3822 22.6985 14.3613 22.4709C14.2778 21.4469 14.5075 20.4798 14.9043 19.5507C15.0087 19.3041 15.1967 19.0576 15.3429 18.8301C15.3637 18.849 15.3846 18.849 15.4264 18.849Z" fill="#DDB96A"/>
<path d="M43.3702 17.5027C43.5372 17.7113 43.4328 17.844 43.391 17.9957C43.1195 18.7353 42.8898 19.4938 42.9316 20.2902C42.9316 20.4609 42.9734 20.6505 43.0569 20.8212C43.224 21.1246 43.4954 21.1435 43.7669 20.897C43.8296 20.8401 43.8922 20.7643 43.9758 20.7074C44.0175 20.6695 44.1011 20.6505 44.1429 20.6126C44.2055 21.1056 43.934 21.7314 43.5372 21.9969C43.1613 22.2624 42.7227 22.1296 42.6183 21.7124C42.5765 21.5607 42.5557 21.409 42.5557 21.2573C42.5765 20.5557 42.5348 19.8541 42.6392 19.1714C42.7019 18.7732 42.9525 18.3939 43.1195 17.9957C43.2031 17.863 43.2657 17.7113 43.3702 17.5027Z" fill="#DDB96A"/>
<path d="M21.5667 21.3332C21.692 21.1815 21.7546 21.1246 21.7964 21.0488C22.1305 20.6695 22.5065 20.3282 22.8197 19.93C23.133 19.5317 22.945 19.2283 22.402 19.2094C22.235 19.1904 21.9634 19.2663 21.9217 19.0766C21.9008 18.906 21.9843 18.6784 22.1096 18.5457C22.2767 18.3371 22.4856 18.1664 22.7989 18.1475C23.3001 18.1285 23.6342 18.356 23.6133 18.8112C23.5924 19.1525 23.5089 19.5128 23.321 19.8162C22.9868 20.404 22.4856 20.8781 21.9008 21.2763C21.859 21.3143 21.7546 21.2953 21.5667 21.3332Z" fill="#DDB96A"/>
</svg>
