<svg width="72" height="31" viewBox="0 0 72 31" fill="none" xmlns="http://www.w3.org/2000/svg">
<path d="M0 23.0186C0.0201133 22.8308 0.0268174 22.6363 0.0536351 22.4485C0.127384 21.9321 0.207837 21.4156 0.294995 20.8992C0.308404 20.8187 0.382153 20.7516 0.429084 20.6778C0.46931 20.7516 0.543059 20.8254 0.549763 20.8992C0.576581 21.2681 0.589989 21.6437 0.589989 22.0192C0.589989 22.415 0.576581 22.8107 0.576581 23.2064C0.569876 23.8771 0.717374 24.5277 0.905098 25.1649C1.01907 25.5405 1.15316 25.9093 1.37441 26.2313C1.79008 26.8282 2.35996 27.2306 3.0237 27.5056C4.04948 27.9215 5.11548 28.0221 6.2083 27.9416C7.17374 27.8678 8.11236 27.6666 9.04428 27.3983C10.7807 26.902 12.4032 26.1642 13.9653 25.2588C15.9029 24.1387 17.7064 22.8308 19.4496 21.4223C21.0787 20.1077 22.5872 18.6456 24.1225 17.2304C24.7595 16.6469 25.4232 16.0969 26.2076 15.7079C26.516 15.5604 26.8378 15.453 27.1865 15.4329C27.7697 15.3994 28.1653 15.6744 28.4201 16.1774C28.6547 16.6335 28.7017 17.1231 28.6816 17.6261C28.6547 18.2901 28.5072 18.934 28.3195 19.5645C27.9105 20.9461 27.3608 22.2808 26.8647 23.6289C26.697 24.085 26.5495 24.5612 26.449 25.0374C26.3082 25.7282 26.2545 26.4325 26.4959 27.1166C26.8445 28.1093 27.5552 28.6525 28.6145 28.572C29.3855 28.5117 30.0493 28.1763 30.6862 27.7605C31.5376 27.2038 32.2483 26.4794 32.9322 25.735C33.4082 25.2118 33.8909 24.6954 34.3736 24.1856C34.4608 24.0984 34.4943 24.0045 34.4876 23.8838C34.3602 21.9991 34.2395 20.1144 34.1121 18.2298C34.0518 17.3511 33.9915 16.4792 33.9244 15.6006C33.9177 15.5402 33.911 15.4866 33.8976 15.3994C32.6036 15.9091 31.3298 16.4122 30.056 16.9152C30.0425 16.9085 30.0358 16.8951 30.0224 16.8884C30.056 16.7475 30.0694 16.6067 30.123 16.4725C30.2973 16.0097 30.4783 15.5469 30.6661 15.0909C30.6929 15.0238 30.7733 14.9567 30.8471 14.9299C31.7924 14.5677 32.7377 14.2189 33.6898 13.8635C33.7836 13.8299 33.797 13.7696 33.7903 13.6824C33.7434 13.005 33.6965 12.3276 33.6562 11.6501C33.5892 10.6776 33.5154 9.7051 33.4618 8.73258C33.3814 7.35093 33.3143 5.96928 33.2473 4.58762C33.2137 3.92363 33.1199 3.27975 32.8718 2.65599C32.8115 2.50844 32.8651 2.29381 32.9255 2.12614C33.1467 1.47555 33.3948 0.838382 33.6361 0.194505C33.6629 0.127435 33.7032 0.0670705 33.7367 0C33.7836 0 33.8306 0 33.8708 0C34.1121 0.563392 34.3602 1.12008 34.5882 1.69018C34.9033 2.48161 35.2117 3.27975 35.4932 4.08459C35.7212 4.72847 35.9223 5.38576 36.1302 6.03635C36.157 6.12354 36.1637 6.21744 36.1637 6.30463C36.1637 6.47901 36.0698 6.53937 35.9156 6.45218C35.8218 6.39853 35.7279 6.33816 35.6542 6.26439C35.4262 6.04305 35.2117 5.80831 34.9837 5.58027C34.9569 5.55344 34.9167 5.53332 34.8831 5.50649C34.863 5.55344 34.8295 5.59368 34.8362 5.63392C34.863 6.11683 34.8899 6.59974 34.9234 7.07594C34.9703 7.76006 35.0172 8.43747 35.0642 9.12159C35.1379 10.1276 35.205 11.1404 35.2787 12.1465C35.2988 12.4617 35.3256 12.7702 35.3457 13.0855C35.3457 13.1257 35.3525 13.1659 35.3659 13.2129C35.7145 13.0855 36.043 12.958 36.3715 12.8373C37.1224 12.5556 37.8733 12.2739 38.6242 11.9855C39.4287 11.6837 40.24 11.3752 41.0445 11.0733C41.7954 10.7916 42.5463 10.51 43.3039 10.2283C44.0414 9.95327 44.7789 9.67157 45.5231 9.39658C46.3343 9.09476 47.1455 8.78624 47.9568 8.48442C48.8015 8.16919 49.6463 7.84725 50.4911 7.52531C51.2956 7.22349 52.1068 6.92168 52.9114 6.61986C53.8097 6.2778 54.7081 5.94245 55.6132 5.60039C56.3574 5.31869 57.1016 5.0437 57.8458 4.76201C58.5967 4.48031 59.3476 4.19191 60.0985 3.91021C60.9433 3.58827 61.788 3.27304 62.6328 2.95781C63.5312 2.62246 64.4229 2.2804 65.3213 1.94504C65.7436 1.78408 66.1593 1.62311 66.5817 1.46884C66.6688 1.43531 66.756 1.42189 66.8499 1.40848C66.9907 1.38165 67.0577 1.44872 67.0108 1.58286C66.9571 1.74383 66.8901 1.8981 66.823 2.05236C66.7359 2.24016 66.642 2.42125 66.5549 2.60234C66.4543 2.81025 66.2934 2.93098 66.0722 3.01147C64.8788 3.44743 63.6921 3.8968 62.4987 4.33946C61.3388 4.77542 60.179 5.20467 59.0191 5.64734C57.7654 6.12354 56.5183 6.59974 55.2646 7.07594C54.2254 7.47166 53.1862 7.86737 52.1471 8.26309C51.1079 8.6588 50.0754 9.06123 49.0362 9.46365C47.8562 9.91973 46.6829 10.3691 45.503 10.8252C44.2291 11.3215 42.9553 11.8178 41.6881 12.3141C40.4746 12.7903 39.2611 13.2598 38.0476 13.736C37.2163 14.0647 36.3849 14.3933 35.5536 14.7153C35.4664 14.7488 35.4664 14.8025 35.4664 14.8762C35.4933 15.2049 35.5134 15.5335 35.5335 15.8555C35.6139 16.9755 35.7011 18.0889 35.7815 19.209C35.8553 20.2218 35.9223 21.2345 35.9894 22.2473C35.9894 22.2875 35.9961 22.3211 35.9894 22.3278C36.2441 22.093 36.5123 21.865 36.7604 21.6168C37.7996 20.5839 38.8991 19.6248 40.1327 18.8334C40.9372 18.317 41.782 17.881 42.7005 17.5926C43.3777 17.3847 44.0749 17.2505 44.7856 17.2841C45.8449 17.331 46.6695 17.7938 47.1992 18.7261C47.3132 18.9273 47.3802 19.1688 47.3936 19.3968C47.4405 20.1815 47.3333 20.9394 46.9981 21.6571C46.9712 21.7174 46.9377 21.7711 46.9042 21.8247C46.8371 21.9254 46.7902 21.9254 46.7232 21.8247C46.6226 21.6705 46.5421 21.5095 46.4349 21.362C45.8248 20.4565 44.9532 20.0943 43.8939 20.148C43.0827 20.1882 42.3184 20.4029 41.5876 20.7583C41.2054 20.9394 40.8501 21.1607 40.4746 21.3553C40.2802 21.4559 40.1796 21.59 40.1394 21.8113C40.0053 22.5491 39.8645 23.2869 39.8645 24.0448C39.8578 25.0173 40.0724 25.9362 40.6959 26.7142C41.1317 27.2575 41.6881 27.6196 42.3385 27.8343C43.0894 28.0824 43.8604 28.1428 44.6448 28.0623C45.2951 27.9952 45.9186 27.8074 46.522 27.566C47.997 26.9825 49.3178 26.1441 50.605 25.2319C51.8118 24.3801 52.9583 23.4546 53.9975 22.4016C54.44 21.9522 54.8959 21.5095 55.2378 20.9729C55.4188 20.6845 55.4054 20.5035 55.1707 20.2419C54.9093 19.9468 54.5539 19.8193 54.1852 19.7321C53.5349 19.5712 52.8711 19.5645 52.2074 19.5578C51.5973 19.5511 50.9939 19.484 50.4307 19.2425C49.5055 18.8535 49.0965 18.1895 49.1301 17.1701C49.1703 15.7414 49.7402 14.5677 50.8062 13.6287C51.1883 13.2934 51.6174 13.0519 52.1336 12.9714C52.8108 12.8708 53.4008 13.0855 53.917 13.508C54.5539 14.0244 55.0031 14.6817 55.3786 15.3927C56.1429 16.8213 56.4647 18.3438 56.3641 19.9602C56.2971 20.9864 56.0691 21.9656 55.5663 22.871C55.5328 22.9247 55.506 22.9851 55.4657 23.032C55.1976 23.354 55.0903 23.7295 55.0501 24.1387C55.0031 24.6618 54.9428 25.1783 54.9294 25.7014C54.916 26.1441 55.0098 26.5733 55.2445 26.9556C55.7071 27.7001 56.3977 28.0154 57.2558 27.9617C57.7922 27.9349 58.295 27.7605 58.7911 27.5593C60.3667 26.9288 61.8283 26.0837 63.2496 25.1716C65.1268 23.9576 66.9839 22.7101 68.8411 21.4626C69.1897 21.2278 69.5182 20.9662 69.8467 20.7114C69.9741 20.6108 70.0881 20.4766 70.1887 20.3425C70.3362 20.1413 70.3295 19.9266 70.2021 19.7187C70.0077 19.3968 69.7261 19.1755 69.4244 18.9608C68.6936 18.4377 67.8958 18.0286 67.0979 17.6328C66.0252 17.103 64.9324 16.6134 63.8999 15.9963C62.3981 15.1043 61.1377 13.9373 60.0985 12.5355C59.884 12.2471 59.6225 12.019 59.3074 11.8581C59.0325 11.7172 58.885 11.4959 58.8783 11.1941C58.8582 10.5971 58.8582 10.0002 58.8515 9.40329C58.8515 9.26915 58.8582 9.14171 58.8716 9.00757C58.8917 8.83989 58.9722 8.78624 59.1264 8.86001C59.5353 9.04781 59.9376 9.24232 60.3466 9.43682C61.0774 9.78559 61.8081 10.1276 62.5322 10.4898C62.7333 10.5904 62.9144 10.738 63.082 10.8855C63.2362 11.0264 63.2027 11.1739 63.0015 11.2276C62.8138 11.2813 62.6127 11.3081 62.4115 11.3215C62.1836 11.3349 61.9489 11.3215 61.7143 11.3215C61.674 11.3215 61.6271 11.3215 61.54 11.3215C61.5936 11.3819 61.6271 11.4221 61.6539 11.4489C62.5523 12.3141 63.5647 13.0251 64.6642 13.6019C65.6028 14.0915 66.5616 14.5275 67.5069 15.0104C68.1706 15.3457 68.8344 15.6878 69.478 16.0634C70.1082 16.4323 70.4904 17.0091 70.7116 17.6932C71.0267 18.6791 71.0468 19.6785 70.839 20.6845C70.7518 21.1004 70.658 21.5162 70.5507 21.9321C70.4568 22.2942 70.2289 22.5826 69.9808 22.8509C69.5182 23.354 68.9886 23.7899 68.4455 24.199C66.099 25.9697 63.6519 27.5928 61.1511 29.1287C60.3198 29.6385 59.4616 30.108 58.5565 30.4768C57.9665 30.7183 57.3698 30.8927 56.7128 30.7988C55.7339 30.6646 55.0367 30.175 54.6344 29.2696C54.3595 28.6525 54.2589 27.9952 54.2321 27.3312C54.1919 26.3855 54.2724 25.4466 54.4131 24.5143C54.4199 24.4606 54.4333 24.407 54.4534 24.3131C54.393 24.36 54.3528 24.3868 54.326 24.4204C52.8979 25.8959 51.3626 27.2642 49.6999 28.4781C48.6943 29.2092 47.6484 29.8732 46.4952 30.3561C45.8114 30.6445 45.1074 30.8658 44.3565 30.9262C44.2962 30.9329 44.2358 30.953 44.1755 30.9732C44.0012 30.9732 43.8269 30.9732 43.6592 30.9732C43.552 30.953 43.4447 30.9396 43.3374 30.9195C43.0022 30.8524 42.6603 30.8122 42.3385 30.7116C41.42 30.4232 40.7294 29.833 40.1931 29.0482C39.4287 27.9282 39.1673 26.6739 39.1673 25.3459C39.1673 24.2929 39.288 23.2601 39.5025 22.2272C39.5159 22.1601 39.5293 22.093 39.5427 22.026C39.5293 22.0193 39.5226 22.0125 39.5092 22.0058C39.1874 22.2674 38.8656 22.529 38.5505 22.7973C37.6923 23.5283 36.9213 24.3466 36.1637 25.1783C36.0899 25.2588 36.0564 25.3459 36.043 25.4533C35.9492 26.191 35.8754 26.9288 35.748 27.6599C35.6072 28.458 35.3726 29.236 35.0642 29.9805C34.9435 30.2689 34.796 30.5439 34.6485 30.8256C34.6284 30.8658 34.5747 30.886 34.5345 30.9128C34.5144 30.8726 34.4742 30.8323 34.4742 30.7921C34.4742 30.5439 34.4608 30.289 34.4943 30.0409C34.6284 29.0214 34.6485 28.0019 34.6485 26.9758C34.6485 26.9422 34.6418 26.9087 34.6284 26.855C34.3669 27.1434 34.1255 27.4117 33.8842 27.6733C33.3679 28.2233 32.8718 28.7934 32.3221 29.3165C31.6449 29.9604 30.8806 30.4835 29.9554 30.7183C29.3453 30.8726 28.7486 30.8457 28.1653 30.6043C27.4546 30.3092 26.9384 29.786 26.5026 29.169C25.7383 28.0824 25.5841 26.855 25.7182 25.574C25.7718 25.0441 25.859 24.5076 25.973 23.9844C26.1138 23.3607 26.268 22.7369 26.4691 22.1266C26.7574 21.2614 27.0993 20.4163 27.401 19.5511C27.515 19.2291 27.582 18.8871 27.6424 18.545C27.6893 18.27 27.5351 18.1426 27.2602 18.1962C26.9049 18.27 26.6166 18.4645 26.3283 18.659C25.3092 19.3498 24.3974 20.1748 23.4722 20.9864C21.8229 22.4284 20.1937 23.8905 18.4439 25.2051C16.7343 26.4929 14.971 27.7068 13.087 28.733C12.021 29.3098 10.9215 29.8263 9.76835 30.2019C8.82973 30.5104 7.8643 30.7183 6.87204 30.7787C5.98035 30.8323 5.10878 30.7384 4.26402 30.4366C3.03711 29.9939 2.09178 29.2025 1.40123 28.1025C1.01237 27.4855 0.724078 26.8282 0.509537 26.1374C0.261473 25.3594 0.100566 24.5746 0.0536351 23.7564C0.0402263 23.582 0.0201132 23.4143 0.00670433 23.2399C-1.02401e-07 23.1796 0 23.0991 0 23.0186ZM53.7628 17.0292C53.7427 16.9823 53.736 16.9621 53.7226 16.942C53.5282 16.5932 53.2734 16.3048 52.9784 16.0433C52.4085 15.5469 51.7649 15.3659 51.0341 15.6073C50.7793 15.6878 50.605 15.8421 50.5849 16.1238C50.5648 16.3987 50.6922 16.6067 50.9335 16.7341C51.2889 16.9152 51.671 16.942 52.0599 16.9554C52.4219 16.9621 52.7773 16.9621 53.1393 16.9755C53.3404 16.9823 53.5349 17.0091 53.7628 17.0292Z" fill="white"/>
<path d="M71.8715 6.67347C71.8313 6.77407 71.7977 6.86797 71.7575 6.96858C71.6972 7.12284 71.6502 7.29051 71.5698 7.43136C71.4558 7.63928 71.315 7.6527 71.1474 7.47831C71.0535 7.37771 70.9731 7.25698 70.8725 7.15637C70.772 7.05577 70.6781 6.94845 70.5574 6.88138C70.296 6.72712 70.0546 6.76736 69.887 7.01552C69.7328 7.25027 69.592 7.50514 69.4914 7.77342C69.2031 8.53803 69.0422 9.33616 68.888 10.1343C68.7472 10.8989 68.6131 11.6635 68.3114 12.3879C68.231 12.5757 68.1036 12.7501 67.9829 12.9177C67.9427 12.9714 67.8354 13.025 67.7751 13.0049C67.7214 12.9915 67.6745 12.8842 67.6611 12.8104C67.6276 12.5958 67.6343 12.3678 67.574 12.1598C67.4466 11.6903 67.3125 11.2208 67.1382 10.7715C66.9102 10.1678 66.6487 9.57091 66.3873 8.97398C66.3068 8.7996 66.1928 8.63192 66.0722 8.48437C65.9381 8.30999 65.7503 8.33011 65.6163 8.50449C65.5224 8.62522 65.3011 8.67217 65.1134 8.59168C64.738 8.44413 64.4497 8.16914 64.1815 7.87403C64.148 7.83379 64.1145 7.78684 64.0809 7.74659C63.9334 7.54538 63.8865 7.34417 64.034 7.11613C64.2754 6.73383 64.51 6.33811 64.7447 5.9491C64.8184 5.82838 64.919 5.78814 65.0665 5.80155C65.7034 5.86191 66.1727 6.21068 66.5616 6.68688C67.0443 7.29051 67.3929 7.97463 67.6075 8.71241C67.7751 9.28251 67.8824 9.86602 68.0164 10.4495C68.0231 10.4898 68.0366 10.53 68.05 10.577C68.0634 10.577 68.0835 10.5837 68.0969 10.5837C68.1304 10.4965 68.1773 10.4093 68.1908 10.3221C68.3785 9.12154 68.6735 7.95451 69.0221 6.79419C69.1897 6.25092 69.4512 5.74119 69.8803 5.33876C69.9942 5.23145 70.1417 5.13755 70.2892 5.07719C70.658 4.92292 70.9798 5.04365 71.2413 5.31193C71.4826 5.55339 71.6637 5.82838 71.7977 6.14361C71.8112 6.17714 71.838 6.20397 71.8581 6.2308C71.8715 6.38506 71.8715 6.52591 71.8715 6.67347Z" fill="white"/>
<path d="M37.0017 9.4569C37.0956 9.16179 37.1827 8.85997 37.29 8.56486C37.3973 8.28317 37.5247 8.00147 37.652 7.72648C37.6856 7.65941 37.7526 7.59234 37.8197 7.57222C39.1069 7.08261 40.4009 6.5997 41.6948 6.11679C42.8681 5.67412 44.0414 5.23817 45.2146 4.7955C46.703 4.23882 48.1914 3.69554 49.6798 3.13886C51.195 2.57547 52.7102 2.01207 54.2254 1.44868C54.3729 1.39503 54.5271 1.35478 54.6813 1.31454C54.8489 1.2743 54.9159 1.34137 54.8623 1.51575C54.802 1.70355 54.7215 1.87793 54.6344 2.05232C54.5405 2.25353 54.4198 2.44133 54.326 2.64254C54.2455 2.80351 54.0846 2.84375 53.9438 2.8974C52.8845 3.29312 51.8185 3.68213 50.7525 4.08455C49.6597 4.50039 48.5668 4.92293 47.474 5.34548C46.3544 5.78144 45.228 6.21069 44.1084 6.65335C42.915 7.12285 41.7216 7.60576 40.5282 8.08196C39.3885 8.53804 38.2554 9.00082 37.1224 9.4569C37.0956 9.46361 37.0755 9.47032 37.0486 9.47702C37.0285 9.47032 37.0151 9.46361 37.0017 9.4569Z" fill="white"/>
<path d="M39.6567 1.05298C40.4009 1.05298 41.0043 1.64991 41.0043 2.39439C41.0043 3.09863 40.3674 3.7358 39.6567 3.7358C38.9125 3.7358 38.3225 3.13887 38.3225 2.38768C38.3225 1.60966 38.879 1.05298 39.6567 1.05298Z" fill="white"/>
<path d="M19.081 7.57229C19.3827 7.36437 19.6643 7.12291 19.9794 6.94853C20.8979 6.43209 21.8365 5.93577 22.7617 5.42603C23.1975 5.18458 23.6266 4.923 24.049 4.66143C24.1361 4.60777 24.2702 4.5407 24.23 4.41997C24.2032 4.33949 24.0892 4.26571 24.002 4.23888C23.7473 4.17181 23.4858 4.11145 23.231 4.09133C22.0242 3.98401 20.8107 3.97731 19.6039 4.05108C19.4296 4.0645 19.2486 4.04438 19.0743 4.03096C18.9335 4.01755 18.9 3.96389 18.9603 3.82975C19.0408 3.66208 19.1279 3.50111 19.2218 3.34014C19.4296 2.97796 19.6509 2.62248 19.8587 2.2603C20.0665 1.90483 20.395 1.70362 20.7772 1.57618C21.1996 1.44204 21.6354 1.42863 22.0712 1.43534C22.8288 1.44204 23.5864 1.43534 24.3373 1.48228C24.8602 1.51582 25.3831 1.60972 25.8994 1.70362C26.0938 1.73715 26.2882 1.83776 26.4559 1.94507C26.6905 2.08592 26.7441 2.30054 26.6369 2.56212C26.4424 3.03161 26.1542 3.43404 25.8659 3.84317C25.3966 4.50046 24.887 5.12421 24.3238 5.70102C23.8948 6.13698 23.3852 6.41197 22.8153 6.59306C22.2254 6.78085 21.6354 6.97536 21.0387 7.14974C20.442 7.32412 19.8386 7.47168 19.2352 7.62594C19.195 7.63935 19.148 7.63265 19.1078 7.63936C19.1011 7.61253 19.0877 7.59241 19.081 7.57229Z" fill="white"/>
<path d="M23.5796 11.013C23.6801 10.8051 23.7807 10.6106 23.8746 10.4161C24.0153 10.1344 24.1494 9.85269 24.2902 9.57099C24.3841 9.37649 24.4712 9.34295 24.6523 9.45027C25.3562 9.85269 26.0267 10.3021 26.6569 10.8118C26.8647 10.9795 26.7709 11.1673 26.7105 11.3417C26.5094 11.8916 26.201 12.388 25.8993 12.8843C25.725 13.1727 25.7183 13.166 25.4367 12.9715C24.8199 12.5422 24.1964 12.1264 23.5796 11.6971C23.4924 11.6368 23.4589 11.6502 23.4052 11.7441C23.1639 12.2203 22.9158 12.6898 22.6678 13.1526C22.5873 13.3068 22.527 13.3135 22.3862 13.2129C21.7023 12.7233 21.0118 12.2404 20.3279 11.7575C20.234 11.6904 20.1938 11.6368 20.2542 11.516C20.5492 10.9258 20.8374 10.3222 21.1257 9.73196C21.233 9.51063 21.3202 9.47039 21.528 9.60453C22.1716 10.0271 22.8085 10.4697 23.4455 10.899C23.4924 10.9392 23.5259 10.9661 23.5796 11.013Z" fill="white"/>
<path d="M29.5867 4.7285C29.5398 4.87606 29.4995 5.02361 29.4526 5.17117C29.1509 6.08333 28.8626 6.99548 28.7352 7.95459C28.6883 8.33689 28.695 8.7192 28.8291 9.08809C28.8961 9.26247 29.0034 9.39661 29.1911 9.45027C29.399 9.51063 29.58 9.43685 29.7074 9.28259C29.875 9.07467 30.0225 8.84663 30.1767 8.632C30.2102 8.57835 30.2504 8.5314 30.2906 8.48445C30.3041 8.49116 30.3242 8.49786 30.3376 8.51128C30.3242 8.59176 30.3108 8.67225 30.2906 8.75273C30.1901 9.24905 30.0694 9.73867 29.8213 10.1813C29.7074 10.3825 29.5666 10.5636 29.352 10.6642C28.9297 10.8587 28.4738 10.6441 28.3061 10.188C28.1251 9.69843 28.1385 9.1954 28.1788 8.69237C28.2659 7.42474 28.6816 6.25771 29.2716 5.15105C29.3319 5.03703 29.399 4.92301 29.466 4.80899C29.4861 4.77545 29.5196 4.74862 29.5465 4.71509C29.5599 4.71509 29.5733 4.72179 29.5867 4.7285Z" fill="white"/>
<path d="M23.4723 28.4379C23.4656 28.4848 23.4656 28.5385 23.4455 28.5787C23.1371 29.1824 22.8085 29.7659 22.3459 30.2622C22.1381 30.4835 21.9034 30.678 21.6084 30.7854C21.1257 30.9665 20.5089 30.6848 20.3279 30.1951C20.1871 29.8128 20.2139 29.4238 20.3011 29.0348C20.5961 27.7202 21.2062 26.5465 21.9973 25.4667C22.5135 24.7557 23.1102 24.1253 23.7337 23.5082C23.8008 23.4411 23.8745 23.3875 23.9416 23.3338C23.955 23.3271 23.9751 23.3271 24.022 23.307C23.9952 23.3741 23.9818 23.4277 23.955 23.468C23.6734 23.8771 23.3851 24.2862 23.1035 24.7021C22.6141 25.413 22.1314 26.1307 21.7626 26.9154C21.5079 27.4587 21.3 28.0154 21.3201 28.6257C21.3336 28.961 21.4878 29.2092 21.823 29.3299C22.004 29.397 22.1649 29.3433 22.3191 29.2696C22.6946 29.0885 22.9896 28.8001 23.2913 28.5251C23.3382 28.4848 23.3851 28.4513 23.432 28.4111C23.4455 28.4178 23.4589 28.4312 23.4723 28.4379Z" fill="white"/>
</svg>
