<svg width="51" height="33" viewBox="0 0 51 33" fill="none" xmlns="http://www.w3.org/2000/svg">
<path d="M29.0381 1.98943C28.9806 2.17008 28.9614 2.27847 28.9039 2.38686C28.7504 2.71203 28.5778 3.0372 28.4052 3.34431C28.2518 3.63335 28.0984 3.65142 27.8299 3.4527C27.4464 3.18172 27.082 2.91075 26.6984 2.63977C26.4683 2.47718 26.3724 2.27847 26.4875 2.00749C26.6409 1.62812 26.7751 1.24876 26.9669 0.887454C27.1203 0.562282 27.2162 0.562282 27.5231 0.760998C27.945 1.05004 28.3669 1.32102 28.7888 1.62812C28.8847 1.70038 28.9422 1.86297 29.0381 1.98943Z" fill="white"/>
<path d="M21.882 15.7368C22.8601 15.8761 23.7231 15.998 24.5861 16.1025C25.6217 16.2244 26.6573 16.3462 27.6738 16.4681C28.2299 16.5204 28.7669 16.5726 29.3231 16.6074C30.1285 16.6597 30.934 16.7293 31.7395 16.7642C32.2189 16.7816 32.6984 16.799 33.1587 16.799C33.6189 16.8164 33.734 16.9731 33.5422 17.3562C33.3313 17.7219 33.0819 18.0876 32.8902 18.4533C32.7367 18.7319 32.5066 18.8189 32.1998 18.8364C31.6244 18.8538 31.0299 18.8538 30.4546 18.8886C28.8436 19.0279 27.2519 19.2717 25.7752 19.8986C24.682 20.3513 23.608 20.8563 22.5149 21.3265C21.7861 21.6399 21.0574 21.9533 20.3094 22.2494C19.9642 22.3887 19.5999 22.4757 19.1971 22.3538C18.7944 22.2319 18.6218 22.3713 18.6218 22.7543C18.6026 23.1026 18.6218 23.4509 18.5834 23.7991C18.4875 24.5653 18.4108 25.3315 18.2574 26.0803C18.1423 26.6549 17.7971 27.1425 17.3369 27.543C15.8026 28.8838 14.0958 29.9809 12.1396 30.7819C11.0273 31.2346 9.87664 31.6351 8.6876 31.8789C7.24926 32.175 5.77256 32.2968 4.31504 31.9138C2.79998 31.5132 1.66848 30.66 0.882181 29.4411C0.306842 28.553 0 27.5953 0 26.5505C0 25.5057 0.0191686 24.4609 0.326016 23.4509C0.402727 23.1897 0.517802 22.9285 0.63287 22.6673C0.671226 22.5976 0.767108 22.5628 0.901354 22.4931C0.997244 22.8762 0.863003 23.1897 0.786291 23.4857C0.536978 24.339 0.402732 25.2096 0.594511 26.0977C0.882181 27.4734 1.63012 28.5878 2.97258 29.3192C3.81641 29.7719 4.73695 29.9983 5.71502 30.0505C7.36433 30.1202 8.93691 29.859 10.4903 29.3366C12.3506 28.7097 14.115 27.9435 15.7259 26.8639C16.3204 26.4634 16.8958 26.0106 17.4519 25.5579C17.893 25.2096 18.0464 24.7917 17.9697 24.2519C17.8163 23.12 17.4903 22.0404 16.8958 21.0478C16.7423 20.7866 16.704 20.5429 16.7807 20.2817C16.8574 19.9334 16.9533 19.6025 17.0492 19.2717C17.1067 19.115 17.2026 18.9931 17.2985 18.8538C17.5862 18.9582 17.6821 19.1672 17.7588 19.3588C17.9697 19.8812 18.43 20.1075 18.9862 20.2468C19.7916 20.4384 20.5588 20.2642 21.2683 20.003C22.419 19.5677 23.5313 19.0801 24.6437 18.61C24.7204 18.5752 24.7779 18.5229 24.8738 18.4358C24.7395 18.3662 24.6628 18.2965 24.5669 18.2791C24.3176 18.2269 24.0491 18.1746 23.7998 18.1572C21.8628 17.9309 19.9067 17.6697 17.9505 17.5826C17.8547 17.5826 17.7588 17.5652 17.6821 17.5478C17.356 17.4607 17.2985 17.3562 17.4519 17.095C17.6245 16.7642 17.8163 16.4159 18.0081 16.085C18.0848 15.9632 18.1999 15.8761 18.3149 15.7368C18.1615 15.5452 18.2958 15.4408 18.4875 15.3363C19.0821 15.0577 19.6766 14.7442 20.2711 14.4656C21.0765 14.0825 21.7861 13.5775 22.4957 13.0725C24.0299 11.9755 25.0656 10.5128 26.082 9.03265C26.4656 8.47542 26.8491 7.88337 27.3861 7.43062C27.4628 7.36097 27.5395 7.29131 27.6162 7.23907C27.9423 7.0127 28.2683 7.03011 28.5751 7.29131C28.997 7.67441 29.2655 8.12715 29.2847 8.64955C29.3231 9.38091 29.3039 10.1297 29.2847 10.861C29.2847 11.1048 29.1696 11.3486 29.0929 11.5924C29.0737 11.6446 28.9587 11.7317 28.9011 11.7317C28.8436 11.7317 28.7669 11.6272 28.7477 11.5576C28.7094 11.4357 28.7285 11.3138 28.7285 11.1919C28.7094 10.6521 28.5943 10.1471 28.2683 9.69435C28.2299 9.64211 28.1916 9.57246 28.134 9.52022C27.808 9.15454 27.4436 9.11971 27.0792 9.46798C26.8108 9.72918 26.5614 10.0252 26.3697 10.3386C25.8135 11.1571 25.2957 11.9929 24.7587 12.8113C24.1067 13.8039 23.3204 14.6746 22.3231 15.4059C22.1889 15.4233 22.0738 15.5452 21.882 15.7368Z" fill="white"/>
<path d="M32.9092 25.0355C32.9667 24.931 33.0051 24.8788 33.0051 24.8265C33.1201 24.3041 33.1968 23.7817 33.3311 23.2767C33.5229 22.5454 33.6955 21.814 34.1174 21.1523C34.3475 20.8215 34.616 20.5254 35.0187 20.3339C35.2489 20.2294 35.4982 20.212 35.7091 20.3513C36.4571 20.804 36.7639 21.3961 36.5338 22.1623C36.5146 22.2145 36.4954 22.2668 36.4571 22.319C36.227 22.7195 36.0735 22.7369 35.7667 22.3887C35.2489 21.7618 34.6544 21.7444 34.3283 22.5628C34.1366 23.0155 33.964 23.4857 33.8489 23.9559C33.6379 24.7743 33.5037 25.6275 33.2736 26.446C33.1777 26.7942 32.9475 27.1077 32.7557 27.4211C32.7174 27.4733 32.6023 27.543 32.5448 27.5256C32.4681 27.5082 32.3914 27.4211 32.3338 27.3515C32.2955 27.3166 32.3147 27.247 32.2955 27.1947C32.238 26.4285 31.8736 25.7494 31.5859 25.0355C31.3941 24.5653 31.1448 24.13 30.8763 23.6772C30.6654 23.329 30.5503 23.2941 30.1475 23.4857C29.9558 23.5728 29.8023 23.5902 29.6297 23.4857C29.3996 23.3464 29.1886 23.1897 28.9777 23.0329C28.7476 22.8762 28.6133 22.8936 28.4982 23.1026C27.6736 24.5653 26.4079 25.6624 24.912 26.5504C24.164 27.0032 23.3585 27.3863 22.5914 27.8042C22.3421 27.9435 22.2846 28.048 22.4764 28.2744C23.1476 29.1102 24.0106 29.7023 25.1038 29.9983C26.5996 30.3988 28.0955 30.3291 29.6106 30.0505C30.953 29.7893 32.1996 29.3366 33.4462 28.8142C35.2489 28.0654 36.879 27.1077 38.3365 25.8887C38.4133 25.8191 38.49 25.7494 38.5667 25.6798C38.8735 25.4012 39.0077 25.0877 38.9886 24.6698C38.931 23.5031 38.5667 22.4235 37.9913 21.3961C37.8187 21.1001 37.742 20.804 37.8379 20.4732C37.953 20.0727 38.0489 19.6548 38.1639 19.2543C38.1831 19.202 38.2406 19.1498 38.279 19.0801C38.5475 19.1149 38.6434 19.2891 38.7201 19.4632C38.9119 19.8463 39.1612 20.1946 39.6406 20.3339C40.4077 20.5777 41.1557 20.6125 41.9036 20.2991C42.3255 20.1075 42.7666 19.9508 43.1694 19.7244C43.7447 19.3936 44.1283 18.9234 44.3584 18.3313C44.4543 18.0701 44.5694 17.8089 44.7036 17.5652C44.8379 17.2691 45.0296 17.0079 45.2789 16.7641C45.5858 16.4507 45.7967 16.085 46.0652 15.7368C46.4104 15.284 46.8899 15.0054 47.4269 14.779C48.3666 14.3785 49.2488 14.7616 49.6899 15.5626C50.246 16.5726 50.3803 17.6348 50.1885 18.7319C50.1118 19.1846 49.8817 19.6373 49.6707 20.0553C49.5365 20.3165 49.2871 20.4558 48.9228 20.4384C48.0789 20.4035 47.2926 20.1946 46.5447 19.8637C46.0844 19.6548 45.6433 19.3936 45.2022 19.1324C44.8954 18.9582 44.7611 18.9756 44.6269 19.3065C44.3584 19.916 43.994 20.4906 43.5338 20.9956C42.9201 21.6573 42.2297 22.1971 41.3283 22.5105C40.9447 22.6499 40.5995 22.6847 40.216 22.615C39.8132 22.5454 39.7365 22.5976 39.6982 22.9807C39.6406 23.7817 39.5831 24.6001 39.4872 25.4012C39.4105 25.9584 39.3338 26.533 38.9886 27.038C38.8543 27.247 38.7009 27.4559 38.5091 27.6475C37.4352 28.6575 36.227 29.4933 34.9037 30.2247C33.8872 30.7993 32.7941 31.2346 31.6626 31.6003C30.1475 32.1053 28.575 32.471 26.9448 32.3839C24.5859 32.2794 22.8024 31.3217 21.7284 29.3714C21.575 29.0928 21.4408 28.8316 21.2873 28.553C21.2682 28.5007 21.2106 28.4659 21.1339 28.3963C20.6736 28.5356 20.2134 28.6923 19.7723 28.849C19.3504 28.9883 18.9284 29.1973 18.4106 29.2669C18.4874 28.9535 18.6791 28.849 18.8709 28.7445C19.4654 28.4311 20.0599 28.1002 20.6545 27.8042C20.9613 27.6649 21.0572 27.4559 21.038 27.1599C20.9421 26.0977 21.038 25.0355 21.2873 24.0081C21.3832 23.625 21.5558 23.2419 21.7284 22.8762C21.7668 22.8066 21.8627 22.7543 21.9394 22.6847C22.1312 22.8588 22.0161 22.9981 21.9777 23.1374C21.7284 24.0429 21.4408 24.9484 21.5558 25.8887C21.5942 26.2196 21.6709 26.5504 21.7668 26.8639C21.8435 27.1077 21.9586 27.1251 22.1695 27.0032C23.4353 26.2718 24.7394 25.5927 25.9668 24.8091C26.9065 24.2171 27.7311 23.5031 28.4024 22.6673C28.6517 22.3538 28.8243 21.9881 29.0352 21.6573C29.1119 21.5354 29.227 21.4309 29.2845 21.309C29.4955 20.9259 29.8982 20.9433 30.2818 21.1001C30.953 21.3613 31.3941 21.8488 31.7201 22.3887C32.1229 23.0504 32.4106 23.7469 32.5832 24.4957C32.6215 24.6698 32.679 24.8613 32.9092 25.0355ZM47.2159 16.7467C47.0433 16.7641 46.8899 16.7816 46.7173 16.799C46.5063 16.8338 46.3146 16.9035 46.257 17.095C46.1995 17.304 46.4104 17.4084 46.5447 17.4781C47.1008 17.7393 47.657 18.0005 48.2324 18.2269C48.3282 18.2791 48.4817 18.2617 48.5967 18.2617C48.7502 18.2443 48.8461 18.1398 48.8077 18.0005C48.6159 17.3562 47.983 16.7119 47.2159 16.7467Z" fill="white"/>
<path d="M29.5149 15.9457C29.5149 15.371 29.7258 14.9531 29.9943 14.5352C30.0519 14.4481 30.2245 14.3959 30.3395 14.3611C31.5861 13.9431 32.8327 13.5252 34.0792 13.1073C35.4025 12.6546 36.7066 12.2018 38.0299 11.7491C39.3532 11.2963 40.6765 10.8784 41.9806 10.4256C43.0353 10.06 44.0901 9.69429 45.1449 9.32861C45.2025 9.31119 45.26 9.27637 45.3175 9.27637C45.4326 9.27637 45.5668 9.29378 45.6435 9.34602C45.6819 9.38085 45.6435 9.52015 45.6052 9.60722C45.4134 10.2515 44.9531 10.565 44.2627 10.7739C43.1887 11.0874 42.1531 11.5053 41.0984 11.871C40.0627 12.2366 39.008 12.5849 37.9724 12.9506C37.1669 13.2292 36.3806 13.5252 35.5943 13.8213C34.8464 14.0999 34.0792 14.3611 33.3313 14.6223C32.545 14.9183 31.7395 15.1969 30.9532 15.4929C30.6656 15.5974 30.3587 15.7193 30.071 15.8238C29.8984 15.876 29.7258 15.8934 29.5149 15.9457Z" fill="white"/>
<path d="M11.9094 15.4233C12.2163 15.2491 12.5039 15.0576 12.8108 14.8835C13.9423 14.2218 15.0738 13.5775 16.2053 12.9158C16.5888 12.6894 16.9148 12.4108 17.2217 12.0625C17.0683 11.958 16.9724 11.8884 16.8573 11.8187C15.9943 11.2789 16.0135 10.7217 16.5313 10.0426C16.7422 9.76396 17.0874 9.52017 17.4135 9.32863C17.8545 9.08484 18.2956 9.2938 18.334 9.76396C18.3532 10.1645 18.3148 10.565 18.2381 10.9655C18.1998 11.1918 18.1806 11.3312 18.4299 11.4879C18.8902 11.7839 18.8902 12.1148 18.5066 12.4978C18.3915 12.6197 18.2573 12.6197 18.1039 12.5327C17.682 12.2889 17.682 12.2889 17.3559 12.6197C16.4738 13.5426 15.3806 14.2392 14.1724 14.7616C13.6738 14.9879 13.1176 15.1447 12.5998 15.3188C12.4656 15.371 12.3313 15.4407 12.1779 15.4755C12.1012 15.4929 12.0245 15.4929 11.9286 15.4929C11.9286 15.4929 11.9286 15.4581 11.9094 15.4233ZM17.6436 11.07C17.8354 10.7391 17.797 10.4257 17.5669 10.2864C17.3176 10.1645 17.1066 10.2515 16.8957 10.6172C17.0491 10.861 17.3176 11.0177 17.6436 11.07Z" fill="white"/>
<path d="M38.9695 15.8935C38.9311 15.9631 38.8736 16.1198 38.7968 16.2591C38.6626 16.5203 38.5284 16.7815 38.3749 17.0427C38.2407 17.2865 38.0873 17.3039 37.8571 17.1646C37.4161 16.8686 36.975 16.5726 36.5339 16.2765C36.2654 16.1024 36.2462 15.9805 36.3804 15.7019C36.553 15.3885 36.6873 15.075 36.8599 14.7616C37.0708 14.3611 37.1476 14.3263 37.5503 14.5875C37.9338 14.8312 38.3174 15.0924 38.701 15.3362C38.9119 15.4581 38.9886 15.6148 38.9695 15.8935Z" fill="white"/>
<path d="M15.1505 17.6697C15.093 17.8438 15.0738 17.9483 15.0163 18.0527C14.8628 18.3662 14.6902 18.6796 14.5176 18.9757C14.3642 19.2543 14.2108 19.2717 13.9423 19.0801C13.5395 18.8015 13.1368 18.5403 12.7341 18.2617C12.4464 18.0702 12.4272 17.9483 12.5615 17.6522C12.7341 17.304 12.8683 16.9557 13.0601 16.6249C13.2327 16.3114 13.3094 16.294 13.6546 16.503C14.0765 16.7642 14.4793 17.0254 14.882 17.304C14.9971 17.4085 15.0546 17.5652 15.1505 17.6697Z" fill="white"/>
<path d="M32.2576 11.9233C32.3343 11.8014 32.3726 11.7317 32.411 11.6795C32.7178 11.3312 33.063 11.0178 33.3507 10.6521C33.6575 10.269 33.4849 9.99037 32.948 9.97296C32.8904 9.97296 32.8329 9.97296 32.7562 9.97296C32.526 9.93813 32.4685 9.86848 32.5069 9.67693C32.6028 9.25901 33.1781 8.92816 33.6384 9.01522C33.8877 9.06746 34.1178 9.32866 34.0986 9.62469C34.0603 9.90331 34.0027 10.2167 33.8685 10.4605C33.5425 11.0352 33.063 11.5053 32.4877 11.8884C32.4494 11.9233 32.3918 11.9058 32.2576 11.9233Z" fill="white"/>
</svg>
