<svg width="184" height="66" viewBox="0 0 184 66" fill="none" xmlns="http://www.w3.org/2000/svg">
<path d="M0 30.161C0.380775 30.0377 0.634624 29.7912 0.676932 29.4214C0.888474 27.9013 1.94618 27.2028 3.38466 26.792C5.24623 26.2167 7.06549 25.4772 8.88474 24.8198C10.1963 24.3679 11.4655 23.8749 12.7771 23.4229C14.6387 22.7655 16.5002 22.0671 18.3618 21.4097C19.0387 21.1632 19.6734 20.9167 20.3503 20.6702C20.7734 20.5058 20.858 20.2593 20.8157 19.8074C20.6465 17.9996 20.5195 16.1507 20.308 14.3018C20.0118 11.7956 19.4618 9.33046 18.7003 6.90639C18.5733 6.53662 18.4464 6.08468 18.5733 5.75599C18.9118 4.60559 19.3349 3.53735 19.7157 2.38695C19.758 2.30478 19.8849 2.26369 20.0118 2.18152C20.1388 2.34586 20.308 2.51021 20.4349 2.67455C21.2811 4.2769 21.7465 6.0025 22.0426 7.72811C22.4234 9.7824 22.6773 11.7956 22.9311 13.8499C23.1003 15.4523 23.185 17.0546 23.2696 18.6569C23.2696 18.8624 23.3542 19.1089 23.3965 19.3965C23.735 19.3143 24.0311 19.3143 24.285 19.2322C27.2042 18.1639 30.0812 17.0957 33.0005 16.0275C35.3697 15.1647 37.739 14.3429 40.1083 13.4801C42.4352 12.6173 44.7622 11.7134 47.0891 10.8506C49.9661 9.7824 52.8431 8.79634 55.72 7.72811C58.047 6.86531 60.374 5.96142 62.7009 5.09861C64.9856 4.23581 67.3125 3.41409 69.5972 2.59238C70.8664 2.14043 72.0934 1.6474 73.3626 1.15437C73.5318 1.11329 73.7011 0.990028 73.828 0.990028C74.0818 0.990028 74.378 1.03111 74.5472 1.15437C74.6319 1.23654 74.5049 1.56523 74.4626 1.77066C74.4626 1.85283 74.3357 1.935 74.3357 2.01717C73.9972 3.41409 72.9818 3.9893 71.6703 4.40016C69.851 4.97536 68.0741 5.7149 66.2548 6.37228C64.4779 7.02965 62.6586 7.68702 60.8393 8.3444C58.9778 9.04286 57.1162 9.70023 55.2547 10.3987C54.0277 10.8506 52.8008 11.3026 51.5738 11.7545C50.22 12.2476 48.8661 12.7817 47.5122 13.2747C46.2853 13.7266 45.0583 14.1786 43.8314 14.6305C42.5622 15.0825 41.2929 15.5344 40.066 16.0275C38.7121 16.5205 37.3582 17.0546 36.0044 17.5476C34.2697 18.205 32.5351 18.8624 30.8428 19.5198C29.0235 20.2182 27.2042 20.9167 25.385 21.574C24.8773 21.7795 24.3696 21.9849 23.9042 22.1903C23.3542 22.3958 23.3119 22.8888 23.3542 23.3407C23.4811 26.3811 23.608 29.4214 23.6927 32.4618C23.7773 35.2146 23.8196 37.9673 23.9465 40.7201C24.0311 42.4457 24.2003 44.1713 24.4119 45.8969C24.5388 47.0884 25.0465 48.1566 25.8081 49.1427C26.4004 49.9233 27.2466 50.3342 28.2619 50.3342C29.8274 50.3342 31.4351 50.3752 32.9582 49.8411C34.439 49.3481 35.7082 48.6496 36.8505 47.6225C38.0775 46.5132 39.2198 45.4038 40.4467 44.2945C40.7429 44.0069 41.0391 43.7604 41.4198 43.555C41.8429 43.3496 42.1391 43.5139 42.2237 43.9658C42.266 44.2124 42.1814 44.5 42.1814 44.7465C42.0968 45.938 42.0968 47.1294 42.9852 48.1155C43.4929 48.6496 44.0429 48.9783 44.7622 49.1016C46.5814 49.4713 48.2315 48.8961 49.8815 48.2799C50.643 47.9923 51.3623 47.6225 52.0815 47.2527C52.42 47.0884 52.6738 46.8419 53.0123 46.5953C52.8854 46.3899 52.8431 46.2256 52.7162 46.1434C51.4892 45.0752 50.1353 44.0891 48.5699 43.5139C47.1738 43.0209 45.7353 43.0209 44.3391 43.6372C44.1276 43.7193 43.8314 43.7193 43.5776 43.7193C43.5776 43.4728 43.4929 43.1852 43.5776 42.9798C43.9583 42.0348 44.3814 41.0898 44.7622 40.1449C45.2276 38.9534 46.243 38.5014 47.3853 38.1727C51.7854 36.8991 56.2701 36.4882 60.8393 36.9812C63.5048 37.2688 66.0433 38.1316 68.201 39.7751C69.1741 40.5146 69.2587 40.6379 68.6241 41.9115C68.3702 42.3635 67.9894 42.8154 67.8625 43.2674C67.6087 44.048 67.0587 44.4178 66.2971 44.7054C64.6471 45.3217 63.0394 45.979 61.4317 46.6364C61.2624 46.6775 61.1355 46.8008 60.9663 46.8829C61.2624 47.7457 62.024 47.9923 62.7009 48.2799C63.7586 48.7729 64.9433 49.0605 66.1279 49.0605C66.6779 49.0605 67.1856 49.1427 67.651 49.4303C68.2856 49.8 69.0048 49.3892 69.1741 48.6496C69.301 47.9923 69.3433 47.2938 69.4702 46.5953C69.7664 44.7876 70.2741 43.062 71.1203 41.4596C71.2472 41.2542 71.4164 41.0898 71.5857 40.8433C72.1357 41.2953 71.8395 41.7061 71.7126 42.0759C70.9933 43.9658 70.6126 45.938 70.4856 47.9512C70.4856 48.0333 70.4433 48.1566 70.4856 48.2388C70.4856 48.814 70.7818 49.0605 71.3318 48.814C72.3895 48.3209 73.4472 47.7868 74.4203 47.1705C75.4357 46.5132 76.155 45.5271 76.578 44.3767C76.9588 43.4728 77.3396 42.5689 77.7627 41.665C77.8473 41.5007 77.8896 41.3774 77.9742 41.2131C78.905 40.0216 79.7935 38.7479 80.7666 37.5975C81.5704 36.6115 82.6281 35.913 83.9397 35.5432C85.8436 35.0091 87.4936 35.7487 88.4244 37.4743C89.7359 39.9805 89.9475 42.6511 89.5244 45.3628C89.3551 46.3899 88.8051 47.3349 88.3397 48.2799C88.0859 48.7729 87.6205 49.0194 87.0282 49.0194C85.3782 49.0605 83.7704 48.7318 82.2897 48.0744C80.8089 47.376 79.4127 46.5542 77.8473 45.6914C77.7204 45.8969 77.4242 46.1434 77.2973 46.431C76.155 49.2248 74.2934 51.4024 71.7972 53.0869C71.1626 53.4978 71.078 53.8675 71.4164 54.5249C72.2626 56.1683 73.3626 57.6063 75.1396 58.4281C75.8588 58.7568 76.6203 59.0854 77.4242 59.2087C79.5396 59.4963 81.655 59.4963 83.7704 58.9622C87.1128 58.0994 90.1167 56.5381 92.9514 54.6892C95.236 53.2102 97.563 51.7311 99.763 50.0876C101.117 49.1016 102.301 47.9101 103.444 46.7186C103.909 46.2256 104.29 45.486 104.375 44.8286C104.628 43.3085 104.798 41.7472 104.84 40.227C104.882 37.3099 104.798 34.3928 104.755 31.4347C104.755 31.1471 104.713 30.7362 104.544 30.6129C104.036 30.2021 104.163 29.7912 104.248 29.2982C104.375 28.4765 104.544 27.6137 104.502 26.7509C104.375 24.0803 104.163 21.4508 103.952 18.7802C103.74 16.5616 103.486 14.3429 103.232 12.1243C102.978 10.2754 102.682 8.42657 102.344 6.57771C102.132 5.50948 102.09 4.52341 102.386 3.45518C102.555 2.83889 102.598 2.18152 102.725 1.52415C102.809 1.0722 102.894 0.620257 103.571 0.455914C103.698 0.661343 103.825 0.907858 103.909 1.11329C104.671 3.90713 105.305 6.74205 105.686 9.61806C105.982 11.7545 106.363 13.8499 106.575 15.9453C106.828 18.6159 106.955 21.3275 107.167 23.9981C107.209 24.5322 107.294 25.0663 107.336 25.7648C107.971 25.6005 108.436 25.4772 108.902 25.3129C110.721 24.6555 112.54 23.957 114.402 23.2586C116.221 22.6012 118.082 21.9438 119.902 21.2864C121.721 20.6291 123.54 19.9306 125.402 19.2732C126.713 18.8213 127.983 18.3283 129.294 17.8763C130.606 17.3833 131.96 16.8903 133.271 16.4383C134.583 15.9864 135.852 15.4933 137.164 15.0414C138.475 14.5484 139.829 14.0964 141.141 13.6034C143.002 12.9049 144.864 12.2476 146.725 11.5491C148.544 10.8917 150.364 10.1933 152.225 9.4948C152.987 9.2072 153.748 8.9196 154.51 8.67309C155.314 8.38549 155.525 8.22114 155.483 7.39943C155.398 6.53662 155.271 5.63273 155.018 4.81101C154.848 4.2769 154.764 3.78387 154.933 3.29084C155.271 2.34586 155.652 1.3598 156.033 0.414829C156.118 0.250485 156.372 -0.0371159 156.498 0.00396993C156.71 0.0450558 156.964 0.250484 157.091 0.455914C157.514 1.44197 157.937 2.46912 158.318 3.45518C158.614 4.23581 158.91 5.05753 159.248 5.83816C159.375 6.12576 159.587 6.41336 159.756 6.70096C160.898 6.29011 161.956 5.92033 163.014 5.50947C164.918 4.81101 166.779 4.11255 168.683 3.41409C170.46 2.75672 172.279 2.05826 174.056 1.40089C175.199 0.990028 176.299 0.538084 177.441 0.127226C177.695 0.0450539 178.076 0.00396742 178.287 0.168311C178.626 0.414826 178.372 0.743515 178.287 1.0722C177.906 2.42804 176.891 3.12649 175.537 3.53735C173.718 4.11256 171.941 4.8521 170.122 5.50947C168.26 6.20793 166.399 6.86531 164.537 7.52268C163.395 7.93354 162.252 8.3444 161.11 8.75526C160.602 8.96069 160.56 9.33046 160.56 9.82349C160.602 10.1522 160.898 10.6041 160.475 10.8096C160.01 11.0561 159.798 10.522 159.46 10.3165C159.333 10.2343 159.291 10.1111 159.164 10.07C158.952 9.98783 158.698 9.94675 158.445 9.86458C158.402 10.07 158.275 10.2754 158.318 10.4809C158.529 13.5623 158.741 16.6437 158.952 19.6841C159.206 22.971 159.46 26.2168 159.672 29.5036C159.883 32.3385 160.052 35.2146 160.264 38.0495C160.348 39.241 160.391 40.4735 160.475 41.665C160.602 43.8015 160.348 45.938 159.925 48.0333C159.587 49.8822 158.952 51.6489 158.148 53.3334C158.106 53.3745 158.022 53.4156 157.852 53.5388C157.768 53.2923 157.598 53.0869 157.598 52.8815C157.641 52.0187 157.683 51.197 157.81 50.3342C158.064 48.2799 158.022 46.2256 157.81 44.1302C157.725 43.2263 157.683 42.2813 157.641 41.3774C157.472 38.5836 157.26 35.8308 157.091 33.037C156.964 31.3114 156.922 29.5447 156.795 27.8191C156.625 25.4361 156.414 23.0531 156.245 20.6702C156.118 18.8213 155.991 17.0135 155.864 15.1647C155.779 13.9732 155.737 12.8228 155.61 11.6313C155.525 10.9739 155.271 10.8506 154.637 11.0972C151.887 12.1243 149.179 13.1925 146.429 14.2197C144.144 15.0825 141.902 15.8631 139.617 16.7259C137.883 17.3833 136.19 18.0817 134.456 18.698C132.679 19.3965 130.86 20.0539 129.083 20.7112C127.39 21.3686 125.698 21.9849 124.006 22.6423C122.186 23.3407 120.367 24.0392 118.548 24.7377C116.813 25.395 115.121 26.0935 113.386 26.792C111.736 27.4493 110.086 28.1067 108.394 28.6819C107.378 29.0517 107.252 29.1749 107.294 30.161C107.378 32.6672 107.505 35.1324 107.632 37.6386C107.717 39.3642 107.844 41.1309 107.971 42.8565C108.055 44.2124 108.436 45.486 109.029 46.7186C109.536 47.7457 110.298 48.4031 111.44 48.6085C111.821 48.6907 112.202 48.5675 112.625 48.5264C112.836 48.4853 113.09 48.362 113.302 48.362C115.756 48.2388 117.659 47.1295 119.394 45.5682C120.409 44.7054 121.298 43.7193 122.271 42.8154C122.609 42.4867 122.99 41.9526 123.54 42.117C124.09 42.3224 123.836 42.9387 123.836 43.3496C123.836 44.5821 124.386 45.6093 125.317 46.3899C126.079 47.0473 127.01 47.5814 127.898 48.1155C128.236 48.3209 128.533 48.1566 128.744 47.8279C129.294 46.924 129.887 46.0201 130.479 45.1573C131.79 43.1852 133.144 41.2131 134.498 39.241C135.767 37.4332 137.375 35.913 139.194 34.6394C141.479 33.1192 143.975 32.7494 146.641 33.3246C147.952 33.6122 149.179 34.3107 150.194 35.1735C151.337 36.1595 152.437 37.1867 153.156 38.5014C153.875 39.8162 154.256 41.0898 153.621 42.5278C153.241 43.3496 153.029 44.2124 152.733 45.0341C152.056 46.8419 150.745 48.1566 149.179 49.2248C146.641 50.9504 143.891 52.2652 140.971 53.2102C139.279 53.7443 137.502 53.9497 135.725 54.1962C133.779 54.4427 131.96 54.2373 130.098 53.8675C129.675 53.7854 129.252 53.621 128.829 53.4978C128.236 53.3334 128.067 53.4156 127.771 53.9497C127.475 54.5249 127.263 55.1001 126.967 55.6342C126.883 55.7986 126.713 55.8807 126.544 56.0451C126.163 55.6753 126.248 55.2645 126.333 54.8947C126.46 54.4016 126.586 53.9497 126.756 53.4978C126.925 53.0869 126.84 52.8404 126.417 52.635C125.91 52.3884 125.444 52.0598 124.936 51.7722C123.667 50.9504 122.821 49.8822 122.313 48.4853C122.229 48.2799 122.102 48.0744 121.975 47.8279C121.763 47.9923 121.594 48.0744 121.509 48.1977C120.156 50.0466 118.379 51.4846 116.348 52.5117C115.671 52.8404 114.867 53.0047 114.148 53.2102C113.598 53.3745 113.048 53.5388 112.498 53.6621C112.286 53.7032 112.075 53.7443 111.905 53.7032C109.536 53.2923 107.548 52.183 106.744 49.5946C106.49 48.7729 106.321 47.869 106.109 47.0062C106.025 46.7597 105.94 46.4721 105.813 46.1845C105.221 46.3899 105.136 46.8008 105.094 47.1705C104.882 48.9372 103.994 50.2931 102.682 51.4846C99.4668 54.3606 96.1668 57.1133 92.4436 59.373C90.2013 60.7289 87.9167 62.0025 85.4628 62.9064C83.2627 63.7281 81.0204 64.3444 78.6511 64.0979C76.155 63.8514 73.8703 63.1529 72.2203 61.1397C70.7818 59.373 69.7664 57.3598 69.4702 55.1001C69.3433 54.1551 69.3433 54.1551 68.4125 54.0319C67.6933 53.9497 66.9317 53.9086 66.2125 53.8675C63.5894 53.8264 61.3047 52.8404 59.2316 51.3202C58.4701 50.745 57.7508 50.1698 57.0316 49.5535C56.2701 48.9372 56.1008 48.8961 55.3393 49.3892C54.0277 50.252 52.6738 51.0737 51.3623 51.9365C49.8815 52.8815 48.2738 53.5388 46.4968 53.7854C45.1853 53.9908 43.916 53.7854 42.7737 53.1691C41.3775 52.4295 40.7852 51.1559 40.5737 49.7179C40.5314 49.307 40.4467 48.8961 40.4044 48.4853C39.7275 48.4031 39.4737 48.814 39.1352 49.1427C38.2467 50.1287 37.4005 51.197 36.4275 52.0598C34.312 53.9497 31.8582 55.1823 28.8543 55.0179C26.1465 54.8536 24.285 53.6621 23.2273 51.1969C22.4657 49.4303 22.1696 47.6225 22.0426 45.7325C21.8734 43.4317 21.7042 41.172 21.6195 38.8712C21.5349 36.6936 21.5349 34.475 21.4503 32.2564C21.3657 30.2021 21.2388 28.1478 21.1118 26.0524C21.0695 25.2718 21.1118 24.4911 21.0695 23.6694C21.0272 22.9299 20.858 22.8477 20.1388 23.1353C17.8964 23.9981 15.6118 24.8609 13.3694 25.7237C11.1271 26.5865 8.92705 27.4904 6.72702 28.3532C4.73853 29.1338 2.79235 29.8734 0.803858 30.654C0.592317 30.7362 0.338467 30.6951 0.0846169 30.7362C3.21526e-07 30.9416 0 30.5718 0 30.161ZM134.921 50.2931C136.444 50.0876 138.01 49.9644 139.533 49.6768C140.633 49.4713 141.733 49.1427 142.833 48.7729C143.975 48.4031 145.117 47.9512 146.218 47.4992C147.994 46.8008 149.644 45.8147 151.21 44.7054C152.225 43.9658 152.31 43.5139 151.421 42.5278C150.237 41.2131 148.883 39.9805 147.233 39.1588C144.441 37.7619 141.691 37.6797 138.94 39.2821C137.29 40.227 135.894 41.4596 134.667 42.8565C133.102 44.6232 131.748 46.5132 130.479 48.5264C130.056 49.1837 130.267 49.5946 131.029 49.7179C132.256 49.9644 133.567 50.1287 134.921 50.2931ZM61.347 42.61C61.0086 41.9937 60.4163 41.9115 59.8663 41.8294C59.147 41.7061 58.4278 41.7472 57.7508 41.5829C56.7354 41.3363 55.72 41.4596 54.7469 41.665C54.5777 41.7061 54.4508 41.8294 54.2392 41.9526C55.2546 42.8154 56.1431 43.5961 57.1162 44.3767C57.2431 44.5 57.5816 44.5 57.7508 44.4178C58.9355 43.8426 60.0778 43.2674 61.347 42.61ZM82.882 40.5146C82.332 40.6379 81.7397 40.7201 81.2743 40.9666C80.555 41.3363 80.5127 41.7883 81.2319 42.1992C82.4166 42.8565 83.6435 43.4728 84.8705 44.048C85.1666 44.2124 85.5897 44.2124 85.9705 44.1713C86.3512 44.1302 86.5628 43.8426 86.3936 43.4728C86.2666 43.1441 86.1397 42.7743 85.9282 42.4867C85.2089 41.4596 84.3204 40.5968 82.882 40.5146Z" fill="#DDB96A"/>
<path d="M176.848 19.6018C177.144 19.8072 177.398 19.9305 177.652 20.0948C178.963 21.2042 180.233 22.3135 181.502 23.4639C181.586 23.5461 181.671 23.5872 181.713 23.6693C181.798 23.8748 181.883 24.1213 181.967 24.3678C181.713 24.45 181.502 24.5732 181.248 24.5732C180.909 24.6143 180.529 24.5321 179.979 24.5321C180.148 24.9019 180.233 25.1484 180.317 25.3539C181.121 26.833 181.967 28.271 182.729 29.7912C183.025 30.4485 183.152 31.2292 183.194 31.9687C183.279 32.9137 183.236 33.8587 183.194 34.8448C183.025 37.7619 181.756 40.0216 179.133 41.4596C178.625 41.7472 178.413 42.117 178.244 42.6511C177.398 46.1845 176.002 49.4714 172.913 51.8133C171.475 52.9226 170.079 54.0731 168.513 54.977C164.832 57.1134 161.109 59.1267 157.344 61.181C155.905 61.9616 154.298 62.167 152.69 62.4957C151.336 62.7833 149.982 63.112 148.628 63.3996C147.655 63.605 146.724 63.8926 145.794 64.0981C143.001 64.7144 140.167 65.2896 137.374 65.8648C136.993 65.947 136.655 65.988 136.274 65.988C136.063 65.988 135.851 65.8648 135.513 65.7826C135.851 65.5361 136.02 65.3717 136.19 65.2896C137.882 64.55 139.574 63.8105 141.267 63.112C142.917 62.4546 144.609 61.8383 146.217 61.1399C147.867 60.4825 149.517 59.784 151.124 59.0445C153.409 58.0173 155.651 57.0313 157.894 55.963C160.432 54.7304 162.928 53.4568 165.425 52.1009C168.259 50.5807 171.052 48.9784 173.506 46.883C174.267 46.2256 174.944 45.4039 175.579 44.6233C175.79 44.3356 175.917 43.8837 175.917 43.5139C176.002 42.2813 175.748 42.1581 174.479 42.2403C172.871 42.3224 171.221 42.4046 169.613 42.3224C168.809 42.2813 167.963 41.9937 167.202 41.5829C166.017 40.9666 165.425 39.8573 165.425 38.5836C165.382 35.7487 166.44 33.4067 168.852 31.7222C170.248 30.7361 171.856 30.7772 173.294 31.7222C174.69 32.6261 175.579 33.9409 176.467 35.2556C176.721 35.6254 176.933 35.9952 177.144 36.3649C177.652 37.1867 178.329 37.3921 179.175 36.8991C179.809 36.5293 180.444 36.1595 181.036 35.7076C181.756 35.1324 181.798 34.9269 181.417 34.1052C180.994 33.2013 180.486 32.2563 179.936 31.3935C178.794 29.5857 177.694 27.7369 177.017 25.6826C176.933 25.395 176.636 25.1484 176.382 24.943C176.086 24.6554 175.832 24.3678 175.875 23.9158C176.044 22.6833 176.213 21.4507 176.425 20.2181C176.509 20.0127 176.679 19.8483 176.848 19.6018ZM170.925 37.8851C171.432 37.844 171.982 37.803 172.532 37.7208C173.082 37.6386 173.167 37.3099 172.829 36.8991C172.067 35.9541 170.205 35.2967 169.021 35.5432C168.555 35.6665 168.217 35.913 168.09 36.3649C168.005 36.8169 168.217 37.1456 168.555 37.3921C168.809 37.5564 169.148 37.7208 169.444 37.7619C169.952 37.844 170.459 37.844 170.925 37.8851Z" fill="#DDB96A"/>
<path d="M65.9585 33.2836C66.4662 32.8727 66.9316 32.4207 67.5239 32.0921C71.9663 29.4215 76.451 26.792 80.9357 24.2036C83.3049 22.8478 85.3357 21.0811 87.1127 19.0268C87.7473 18.2873 87.9165 17.5477 87.6627 16.6439C86.9011 14.2198 86.055 11.7957 84.828 9.49495C84.7434 9.33061 84.6165 9.16626 84.4896 9.00192C83.9395 8.30346 83.7703 8.26238 83.0088 8.75541C82.5434 9.04301 82.1203 9.043 81.6972 8.79649C80.978 8.38563 80.301 7.89261 79.8356 7.19415C79.4972 6.70112 79.3702 6.20809 79.5818 5.71507C80.0049 4.89335 80.4703 4.11273 81.0203 3.3321C81.401 2.79799 81.9511 2.7569 82.5434 2.96233C84.0665 3.37318 85.1242 4.31816 85.9703 5.55073C87.2396 7.44067 87.8319 9.53604 88.2973 11.7136C88.3819 12.0423 88.4665 12.3709 88.5935 12.864C88.805 12.6175 88.9319 12.5353 88.9319 12.412C89.355 10.481 89.8204 8.59106 90.2012 6.66004C90.5396 5.18095 91.0897 3.78404 92.0204 2.51039C92.1474 2.34604 92.2743 2.22279 92.4012 2.05844C94.0512 0.168503 95.6167 1.11347 96.5474 2.4693C97.1821 3.41427 97.5628 4.40032 96.8436 5.50964C96.7167 5.67398 96.7167 5.96158 96.632 6.16701C96.3782 6.74221 95.9128 6.82438 95.4897 6.33135C95.1936 6.00267 94.9397 5.67398 94.6013 5.38638C93.8397 4.7701 93.0781 4.85227 92.5704 5.67398C92.1474 6.41352 91.7243 7.19415 91.4704 7.97478C90.9627 9.65929 90.582 11.3438 90.2012 13.0283C89.8204 14.8772 89.355 16.726 88.5512 18.4927C87.7896 20.0951 87.1127 21.6974 85.8011 22.93C84.4049 24.2858 82.9241 25.5184 81.3587 26.6688C78.5241 28.7641 75.3933 30.3665 72.0509 31.558C70.274 32.1742 68.5393 32.8727 66.7624 33.5301C66.5508 33.6122 66.297 33.6122 66.0854 33.6533C66.0431 33.5301 66.0008 33.4068 65.9585 33.2836Z" fill="#DDB96A"/>
<path d="M32.0278 28.3941C32.1124 27.9011 32.1548 27.4903 32.2394 27.1205C32.3663 26.6275 32.5355 26.0934 32.7894 25.6414C33.0009 25.2717 33.3394 24.8197 33.7202 24.6554C35.4125 23.998 37.1471 23.4229 38.8395 22.8066C40.6587 22.1492 42.5203 21.4919 44.3396 20.8345C46.2857 20.136 48.1896 19.4376 50.1358 18.7392C51.9551 18.0818 53.7743 17.3833 55.6359 16.726C56.9051 16.2741 58.1744 15.8221 59.4436 15.3291C61.3475 14.6306 63.2937 13.9322 65.1976 13.2338C66.9745 12.5764 68.7515 11.9601 70.4861 11.3028C72.4323 10.6043 74.3362 9.90587 76.24 9.20742C76.7901 9.00199 77.2977 8.79657 77.9324 9.20742C77.4247 10.6454 76.8324 11.8779 75.1823 12.4531C73.2361 13.0694 71.3323 13.8911 69.4284 14.5896C67.6091 15.2469 65.7476 15.9043 63.9283 16.5616C62.1091 17.219 60.3321 17.9175 58.5552 18.5748C56.7359 19.2322 54.8743 19.8895 53.0551 20.5469C51.2358 21.2043 49.4589 21.8616 47.6396 22.519C45.7357 23.2174 43.8319 23.9159 41.9703 24.6143C40.278 25.2717 38.5856 25.888 36.8933 26.5864C35.4125 27.2027 33.9317 27.86 32.4509 28.4763C32.4086 28.4763 32.324 28.4352 32.0278 28.3941Z" fill="#DDB96A"/>
<path d="M134.794 8.87891C134.54 9.28977 134.329 9.65954 134.117 10.0293C133.059 11.9604 130.648 12.7821 128.744 11.9193C128.702 11.9193 128.659 11.9193 128.659 11.8782C127.221 10.9743 126.036 11.5906 124.852 12.4534C124.429 12.7821 124.005 13.1108 123.582 13.4395C123.032 12.9053 123.159 12.289 123.329 11.796C123.836 10.0293 124.852 8.67348 126.586 7.85176C127.348 7.48199 128.109 7.4409 128.786 7.93393C129.886 8.71457 131.113 8.55022 132.298 8.38588C133.144 8.26262 133.609 7.64633 133.398 6.82462C133.186 5.87964 132.89 4.93466 132.552 3.98968C132.383 3.49665 132.383 3.12688 132.594 2.67493C132.89 2.09973 133.102 1.48344 133.567 0.908237C134.117 1.3191 134.286 1.85321 134.498 2.34625C134.879 3.16796 135.217 4.07186 135.725 4.8114C136.063 5.34552 136.656 5.75638 137.163 6.16724C137.586 6.53701 138.052 6.37267 138.433 6.0029C139.025 5.38661 139.575 4.77032 140.167 4.2362C141.31 3.20905 142.452 2.1819 143.679 1.27801C144.398 0.702807 145.287 0.333034 146.302 0.415206C147.656 0.538464 148.629 1.44235 148.671 2.7571C148.713 4.15403 148.29 5.42769 147.444 6.53701C146.175 8.13936 144.525 9.2076 142.452 9.70063C141.14 10.0293 139.786 10.2347 138.433 10.1937C137.84 10.1937 137.459 10.358 137.248 10.8921C137.121 11.1797 136.994 11.4262 136.825 11.6728C136.74 11.796 136.486 11.8782 136.317 11.8782C136.233 11.8782 136.148 11.6317 136.106 11.5084C136.063 11.4673 136.106 11.3852 136.106 11.303C136.698 10.0293 135.809 9.4952 134.794 8.87891ZM139.702 6.33158C139.702 6.41375 139.744 6.49593 139.744 6.5781C139.998 6.61919 140.252 6.74244 140.506 6.70136C141.352 6.5781 142.24 6.49593 143.044 6.20833C144.06 5.87964 145.033 5.42769 145.963 4.93466C146.64 4.60597 146.556 3.90751 145.837 3.70208C145.329 3.53774 144.779 3.45557 144.271 3.53774C142.41 3.86643 141.056 5.14009 139.702 6.33158Z" fill="#DDB96A"/>
<path d="M45.3117 32.626C45.2694 32.3795 45.1848 32.133 45.2271 31.9275C45.4386 31.2702 45.6925 30.6128 45.904 29.9554C46.2002 29.0926 47.0041 28.8461 47.7656 28.5585C49.7964 27.819 51.7849 27.0794 53.8157 26.381C55.1272 25.929 56.4388 25.4771 57.7081 25.0251C58.9773 24.5732 60.2465 24.1213 61.5158 23.6693C63.462 22.9709 65.3659 22.2724 67.312 21.5739C69.1313 20.9166 70.9506 20.2181 72.7698 19.5608C73.9544 19.1088 75.1814 18.698 76.366 18.246C77.3391 17.8762 78.3122 17.5065 79.2853 17.1778C79.7507 17.0134 80.3007 16.6848 80.7238 17.0956C81.1045 17.4654 80.6391 17.9584 80.5122 18.3693C80.1315 19.6429 78.9891 20.0127 77.8891 20.4236C75.8583 21.1631 73.8698 21.9026 71.839 22.6422C69.5544 23.4639 67.2274 24.2856 64.9428 25.1484C63.2081 25.8058 61.5158 26.4631 59.7812 27.1205C58.0888 27.7779 56.3965 28.3942 54.7042 29.0515C52.9695 29.75 51.1926 30.4074 49.4579 31.1058C48.3156 31.5578 47.1733 32.0097 45.9887 32.4616C45.8194 32.5849 45.6079 32.5849 45.3117 32.626Z" fill="#DDB96A"/>
<path d="M114.401 35.2148C114.655 34.5985 114.824 33.7357 115.332 33.0783C115.671 32.5853 116.39 32.2977 117.024 32.0922C119.013 31.3527 121.001 30.6542 122.99 29.9557C124.851 29.2984 126.713 28.641 128.575 27.9836C130.394 27.3262 132.213 26.6278 134.075 25.9704C135.894 25.313 137.755 24.6557 139.575 23.9983C141.436 23.2998 143.298 22.6424 145.159 21.944C146.344 21.492 147.571 21.0812 148.756 20.6292C148.925 20.5881 149.094 20.5471 149.263 20.506C149.94 20.3827 150.152 20.6292 149.983 21.2866C149.602 22.7246 148.629 23.5053 147.19 23.9572C144.609 24.82 142.071 25.8061 139.532 26.751C137.713 27.4084 135.936 28.0247 134.117 28.7232C132.34 29.3805 130.605 30.079 128.871 30.7775C127.263 31.3938 125.613 32.01 123.963 32.6263C122.228 33.2837 120.451 33.9822 118.717 34.6806C117.574 35.1326 116.474 35.5845 115.374 36.0365C114.613 36.2008 114.317 36.0365 114.401 35.2148Z" fill="#DDB96A"/>
<path d="M178.118 16.192C177.145 15.5347 176.299 14.9595 175.41 14.4254C175.283 14.3432 175.156 14.2199 174.987 14.1378C174.268 13.6858 174.056 13.768 173.676 14.5075C173.464 14.9595 173.253 15.4114 172.999 15.8223C172.618 16.4385 172.364 16.4796 171.814 16.1099C170.883 15.4936 169.91 14.8362 168.979 14.1788C168.429 13.8091 168.387 13.6036 168.641 13.0285C168.979 12.2478 169.318 11.4672 169.699 10.6866C170.079 9.94706 170.418 9.86489 171.137 10.3168C171.941 10.8098 172.703 11.344 173.464 11.8781C174.268 12.4122 174.437 12.3711 174.818 11.5494C175.03 11.0564 175.283 10.6044 175.537 10.1525C175.833 9.65946 176.13 9.57729 176.595 9.86489C177.61 10.5223 178.583 11.1796 179.556 11.8781C180.191 12.33 180.191 12.6587 179.853 13.3161C179.514 13.9323 179.218 14.5486 178.88 15.1238C178.71 15.4936 178.414 15.7812 178.118 16.192Z" fill="#DDB96A"/>
<path d="M116.474 1.52417C116.601 1.77069 116.644 1.85286 116.644 1.89394C116.432 2.63349 116.178 3.37304 115.924 4.15368C115.163 6.45449 114.359 8.79639 114.317 11.2205C114.317 11.8778 114.317 12.5352 114.401 13.1926C114.444 13.5624 114.613 13.9732 114.824 14.2608C115.417 15.1647 116.263 15.2469 117.024 14.4663C117.574 13.8911 117.997 13.2337 118.505 12.6174C118.59 12.5352 118.674 12.453 118.886 12.2476C118.971 12.5352 119.14 12.7407 119.098 12.905C118.59 14.4663 118.336 16.1097 117.321 17.4655C116.771 18.2051 116.136 18.8214 115.078 18.7392C114.317 18.6981 113.682 18.3284 113.344 17.7121C113.005 17.0958 112.751 16.3973 112.667 15.6988C112.37 12.905 112.709 10.1933 113.682 7.56381C114.274 5.96146 114.909 4.40019 115.586 2.79784C115.755 2.38698 116.136 2.0172 116.474 1.52417Z" fill="#DDB96A"/>
<path d="M98.4936 30.7361C98.5359 30.7772 98.6206 30.8593 98.5783 30.9004C98.3667 32.7082 97.8167 34.4338 96.7167 35.913C96.1667 36.6525 95.4051 37.0223 94.432 36.8579C93.3743 36.6936 92.782 35.9951 92.5282 35.0501C92.1474 33.8176 92.1051 32.5439 92.1897 31.2291C92.4435 27.4081 93.6705 23.8747 95.4474 20.4645C95.5321 20.3412 95.659 20.218 95.7859 20.0947C96.209 20.4645 96.0397 20.8343 95.9551 21.2041C95.4474 22.7653 94.8974 24.3266 94.4743 25.8879C94.1359 27.1616 93.9666 28.4763 93.882 29.75C93.8397 30.5306 94.0513 31.3113 94.3051 32.0508C94.7282 33.2423 95.8282 33.4889 96.7167 32.5439C97.1398 32.133 97.4359 31.5989 97.8167 31.1469C97.9859 30.9415 97.9859 30.9415 98.4936 30.7361Z" fill="#DDB96A"/>
<path d="M27.8812 14.384C27.7543 13.7267 28.0927 13.4391 28.3889 13.1104C29.3197 12.1243 30.2505 11.2204 31.1389 10.1933C31.8159 9.41264 32.3659 8.54984 32.9159 7.68704C33.339 7.02966 33.5505 6.3312 33.0428 5.67383C32.6197 5.05754 31.4774 4.8932 30.6312 5.22188C30.3774 5.30406 30.1658 5.4684 29.8697 5.55057C29.4466 5.67383 29.1504 5.4684 29.2774 5.05754C29.5735 4.07148 29.8697 3.00325 30.6312 2.22262C31.3928 1.48307 33.1697 1.1133 34.1428 1.60633C34.5236 1.81176 34.9044 2.18153 35.1159 2.5513C35.5813 3.41411 35.6236 4.35908 35.3275 5.34514C34.2274 8.79636 31.9851 11.4259 29.1081 13.6034C28.7697 13.891 28.3466 14.0964 27.8812 14.384Z" fill="#DDB96A"/>
<path d="M37.5701 37.4744C37.4432 37.8853 37.3163 38.1729 37.1894 38.4605C36.8509 39.1589 36.5124 39.8163 36.1739 40.4737C35.7932 41.2132 35.497 41.2543 34.8624 40.8024C33.9316 40.145 33.0431 39.4876 32.1123 38.8303C31.4354 38.3372 31.3931 38.1318 31.7739 37.3512C32.1546 36.6116 32.4508 35.8721 32.8316 35.1325C33.2547 34.2697 33.4239 34.2286 34.2278 34.7627C35.1162 35.379 36.047 35.9953 36.9355 36.6527C37.2317 36.8581 37.4009 37.1868 37.5701 37.4744Z" fill="#DDB96A"/>
<path d="M166.991 28.0244C166.991 27.5725 166.949 27.2438 166.991 26.9151C167.203 24.6553 166.441 22.7242 165.003 20.9986C164.537 20.4234 164.03 19.9303 163.564 19.3551C163.056 18.7799 163.099 17.6706 163.691 17.2597C163.818 17.1364 164.241 17.2186 164.368 17.3419C165.468 18.2458 166.441 19.2729 167.033 20.5055C168.049 22.601 168.218 24.7786 167.753 27.0383C167.668 27.5725 167.668 27.5725 166.991 28.0244Z" fill="#DDB96A"/>
<path d="M45.7354 2.09928C46.6662 1.97601 47.6815 2.75668 48.02 3.70169C48.3585 4.60562 48.02 5.59172 47.1315 6.20803C46.2431 6.82435 45.3123 6.82435 44.4238 6.24912C44.0854 6.04368 43.9161 5.75607 43.9161 5.3452C43.9161 4.81106 43.8738 4.27692 43.9161 3.78387C43.9161 2.6745 44.5508 2.09928 45.7354 2.09928Z" fill="#DDB96A"/>
</svg>
